<svg id="Vrstva_2" data-name="Vrstva 2" xmlns="http://www.w3.org/2000/svg" xmlns:xlink="http://www.w3.org/1999/xlink" viewBox="0 0 1920 1080"><defs><style>.cls-1{fill:none;}.cls-2{clip-path:url(#clip-path);}</style><clipPath id="clip-path"><rect class="cls-1" width="1920" height="1080"/></clipPath></defs><g class="cls-2">

<polygon points="933.5 583.34 933.5 587 930 587 930 907 1094 907 1094 583.34 933.5 583.34"/>
<polygon points="1255 599 1255 422 1094 422 1094 581 1094 581.34 1094 905 1255 905 1255 712.9 1316.75 712.9 1316.75 599 1255 599"/>
<path d="M1256,292V185H1094V422h161V406h62V292Z"/>
<polygon points="930 261 530 259.56 530 288 453 288 453 418 530 418 530 422 875 422 875 372 913 372 913 344.5 933.5 344.5 933.5 261 930 261"/>
<polygon points="933.5 422 875 422 530 422 530 585 645 585 645 663 760 663 760 585 933.5 585 933.5 422"/>

</g></svg>