<svg id="Vrstva_4" data-name="Vrstva 4" xmlns="http://www.w3.org/2000/svg" xmlns:xlink="http://www.w3.org/1999/xlink" viewBox="0 0 1920 1080"><defs><style>.cls-1{fill:none;}.cls-2{clip-path:url(#clip-path);}</style><clipPath id="clip-path"><rect class="cls-1" width="1920" height="1080"/></clipPath></defs><g class="cls-2">

<polygon points="1094 506 1255 506 1255 406 1317 406 1317 292 1256 292 1256 185 930 185 930 261 933.5 261 933.5 344.5 953.5 344.5 953.5 371.5 1094 371.5 1094 506"/>
<polygon points="933.5 344.5 913 344.5 913 369 933.5 369 933.5 585 610 585 610 259.56 930 261 933.5 261 933.5 344.5"/>
<polygon points="1255 506 1255 599 1316.75 599 1316.75 712.9 1255 712.9 1255 905 930 905 930 585 933.5 585 933.5 581.34 1094 581.34 1094 506 1255 506"/>

</g></svg>