<svg id="Vrstva_1" data-name="Vrstva 1" xmlns="http://www.w3.org/2000/svg" viewBox="0 0 40 40"><defs><style>.cls-1{fill:none;}.cls-2{fill:#707070;}</style></defs><ellipse class="cls-1" cx="24.2" cy="16.79" rx="10.79" ry="11.99"/><path class="cls-2" d="M24.2,0C15.6,0,8.61,7.53,8.61,16.79a17.57,17.57,0,0,0,2.44,9L.91,35.91a2.4,2.4,0,0,0,3.4,3.39l9.76-9.77a14.88,14.88,0,0,0,10.13,4c8.59,0,15.59-7.53,15.59-16.79S32.79,0,24.2,0Zm0,28.78c-5.95,0-10.8-5.38-10.8-12s4.85-12,10.8-12S35,10.18,35,16.79,30.15,28.78,24.2,28.78Z"/></svg>