<svg id="Vrstva_1" data-name="Vrstva 1" xmlns="http://www.w3.org/2000/svg" viewBox="0 0 40 40"><defs><style>.cls-1{fill:#747373;}</style></defs><path class="cls-1" d="M11.78,25.73c0-.66-.46-1.06-1.27-1.06a2.89,2.89,0,0,0-.68.07v2.13a2.69,2.69,0,0,0,.55,0C11.25,26.91,11.78,26.47,11.78,25.73Z"/><path class="cls-1" d="M16.82,24.7a3.6,3.6,0,0,0-.74.06v4.72a3.21,3.21,0,0,0,.57,0A2.24,2.24,0,0,0,19.09,27,2.07,2.07,0,0,0,16.82,24.7Z"/><path class="cls-1" d="M26.17,0H10.11A4.26,4.26,0,0,0,5.85,4.26V20H5.43a1.72,1.72,0,0,0-1.71,1.72v10.4a1.71,1.71,0,0,0,1.71,1.71h.42v1.91A4.26,4.26,0,0,0,10.11,40H32a4.26,4.26,0,0,0,4.25-4.26V10.08Zm-18,23.59a14,14,0,0,1,2.2-.15,3.5,3.5,0,0,1,2.21.58,2.13,2.13,0,0,1,.77,1.67,2.31,2.31,0,0,1-.66,1.71,3.35,3.35,0,0,1-2.35.76,4.5,4.5,0,0,1-.56,0v2.58H8.22ZM32,37.39H10.11a1.65,1.65,0,0,1-1.65-1.65V33.83H28.89a1.71,1.71,0,0,0,1.72-1.71V21.72A1.72,1.72,0,0,0,28.89,20H8.46V4.26a1.65,1.65,0,0,1,1.65-1.65l15.09,0V8.17a3,3,0,0,0,2.95,2.95h5.46l.06,24.63A1.64,1.64,0,0,1,32,37.39ZM14.44,30.68V23.59a15.45,15.45,0,0,1,2.21-.15,4.66,4.66,0,0,1,3,.77,3.2,3.2,0,0,1,1.22,2.72,3.67,3.67,0,0,1-1.2,2.93,5.18,5.18,0,0,1-3.33.93A14.74,14.74,0,0,1,14.44,30.68Zm11.68-4.2v1.33H23.53v2.9H21.9V23.5h4.41v1.34H23.53v1.64Z"/></svg>