<svg xmlns="http://www.w3.org/2000/svg" width="215.216" height="95.199" viewBox="0 0 215.216 95.199">
  <path id="Path_255" data-name="Path 255" d="M370.795,405.984,377,394.66l5.985,11.324Zm-12.456,11.109h6.471L368.045,411h17.633l3.343,6.094H396.3L380.34,389.267h-6.256Zm-17.1,0h4.476l15.314-27.825h-6.47l-10.731,20.113-11.27-20.113h-7.388Zm-54.415-11.54v14.667a12.594,12.594,0,0,0,.351,3.235,4.077,4.077,0,0,0,1.159,2.022,4.632,4.632,0,0,0,2.13,1.025,15.2,15.2,0,0,0,3.264.3h20.49a15.194,15.194,0,0,0,3.263-.3,4.632,4.632,0,0,0,2.13-1.025,4.064,4.064,0,0,0,1.159-2.022,12.591,12.591,0,0,0,.351-3.235V405.552a12.6,12.6,0,0,0-.351-3.235,4.064,4.064,0,0,0-1.159-2.022,4.633,4.633,0,0,0-2.13-1.025,15.2,15.2,0,0,0-3.263-.3h-20.49a15.2,15.2,0,0,0-3.264.3,4.634,4.634,0,0,0-2.13,1.025,4.077,4.077,0,0,0-1.159,2.022A12.6,12.6,0,0,0,286.824,405.552Zm6.471,16.015V403.935h21.354v17.633Zm-22.114-17.794a4.591,4.591,0,0,1,2.211.4q.7.4.7,1.806v2.965q0,1.4-.7,1.806a4.59,4.59,0,0,1-2.211.405h-14.56v-7.387ZM250.258,426.8h6.363V415.959h17.471a7.415,7.415,0,0,0,4.745-1.241q1.51-1.24,1.51-4.152v-6.2q0-2.911-1.51-4.152a7.421,7.421,0,0,0-4.745-1.24H250.258Zm-17.8,9.706h6.471V408.68h-6.471Zm-35.109,0h28.525v-5.23H203.82V408.68h-6.471Zm176.907-60.176H396.3v5.135H374.256Zm-25.407,82.144H355.1v-2.118H351.18v-1.99h3.312V452.3H351.18v-1.819h3.866v-2.075h-6.2Zm-6.842-6.88.256-2.572a5.335,5.335,0,0,0-3.084-.953,5.267,5.267,0,0,0-2.04.4,5.088,5.088,0,0,0-1.7,1.151,5.25,5.25,0,0,0-1.108,1.728,5.65,5.65,0,0,0-.384,2.1,5.528,5.528,0,0,0,.518,2.409,5.223,5.223,0,0,0,1.485,1.855,5,5,0,0,0,1.5.818,5.291,5.291,0,0,0,1.714.276,5.588,5.588,0,0,0,1.591-.227,4.941,4.941,0,0,0,1.407-.668l.156-2.673a4.74,4.74,0,0,1-3.042,1.28,2.939,2.939,0,0,1-1.172-.228,2.685,2.685,0,0,1-.917-.632,2.838,2.838,0,0,1-.6-.974,3.572,3.572,0,0,1-.214-1.265,3.63,3.63,0,0,1,.214-1.272,2.9,2.9,0,0,1,.6-.988,2.752,2.752,0,0,1,.917-.647,2.882,2.882,0,0,1,1.172-.235,3.2,3.2,0,0,1,1.422.327A4.665,4.665,0,0,1,342.007,451.593Zm-23.414,6.88h2.218v-5.487l6.282,5.871h.214V448.409h-2.218v5.544l-6.268-5.871h-.228Zm-13.052,0H311.8v-2.118h-3.924v-1.99h3.313V452.3h-3.312v-1.819h3.867v-2.075h-6.2Zm-12.953-2.161v-5.757h.526a3.58,3.58,0,0,1,2.494.782,2.994,2.994,0,0,1,0,4.2,3.6,3.6,0,0,1-2.494.775Zm-2.374,2.161h2.672a10.674,10.674,0,0,0,1.87-.15,5.238,5.238,0,0,0,1.656-.6,4.668,4.668,0,0,0,2.488-4.279,5.242,5.242,0,0,0-.391-2.053,4.229,4.229,0,0,0-1.158-1.593,5.4,5.4,0,0,0-1.891-1.023,8.362,8.362,0,0,0-2.573-.362h-2.672Zm-9.712,0h2.4V448.409h-2.4Zm-15.412,0h8.5l.384-2.132h-4.99l4.99-7.931h-7.988l-.384,2.1h4.492Zm-12.143,0H259.2v-2.118h-3.923v-1.99h3.312V452.3h-3.312v-1.819h3.866v-2.075h-6.2Zm-11.29-8.23a2.918,2.918,0,0,1,1.485.3,1.147,1.147,0,0,1,.49,1.066,1.262,1.262,0,0,1-.469,1.053,2.227,2.227,0,0,1-1.393.369h-.511v-2.786Zm-2.729,8.23h2.331v-3.951h.341l2.686,3.951h2.743l-3.07-4.321a3.2,3.2,0,0,0,1.4-1.123,2.92,2.92,0,0,0,.476-1.663,2.662,2.662,0,0,0-.305-1.243,2.855,2.855,0,0,0-.874-1,3.3,3.3,0,0,0-1.415-.59,11.085,11.085,0,0,0-1.727-.12h-2.587Zm-57.844-74.6h45.843V373.761h76.51v-10.1h76.9v5.529H308.968v10.1H232.458V389.4H181.085Z" transform="translate(-181.085 -363.658)"/>
</svg>
