<svg id="VL" xmlns="http://www.w3.org/2000/svg" width="182.396" height="115.067" viewBox="0 0 182.396 115.067">
  <g id="Vrstva_1" data-name="Vrstva 1" transform="translate(0 0)">
    <path id="Path_256" data-name="Path 256" d="M111.691,4.4A18.155,18.155,0,0,0,96.746.283,17.715,17.715,0,0,0,84.16,9c-5.475,9.628-10.195,19.288-15.292,29.011q-4.5,8.464-9.062,17.211a5.979,5.979,0,0,0-.755-1.259c-6.608-12.177-13.215-24.291-19.917-36.5A54.937,54.937,0,0,0,32.305,6.639,19.319,19.319,0,0,0,18.429.283a18.029,18.029,0,0,0-8.338,2.36A17.557,17.557,0,0,0,1.879,26.462C7.952,38.544,14.465,50.344,20.947,62.174c7.3,13.687,14.788,27.406,22.025,41.093A18.69,18.69,0,0,0,61.5,114.217,17.054,17.054,0,0,0,76.2,104.778c2.234-4,4.216-8.086,6.293-12.177,6.513-12.429,13.121-24.92,19.6-37.349,3.587-6.985,7.331-13.939,10.95-20.924A78.064,78.064,0,0,0,117.827,24.2,17.369,17.369,0,0,0,111.691,4.4ZM112.7,24.448a95.461,95.461,0,0,1-4.5,8.967q-4.72,8.779-9.439,17.809c-3.146,6.01-5.978,11.7-8.936,17.432-2.612,4.971-5.255,9.817-7.866,14.82s-4.971,9.439-7.331,14.191c-.912,1.731-1.731,3.461-2.643,5.1a13.826,13.826,0,0,1-24.511-.975c-2.108-4-4.216-7.992-6.293-11.862-3.146-5.443-5.727-10.918-8.716-16.393-2.769-4.783-5.129-9.628-7.835-14.442-4.374-7.772-8.37-15.732-12.586-23.567-2.234-3.618-4.185-7.237-6.073-10.95A13.624,13.624,0,0,1,8.707,8.841a15.732,15.732,0,0,1,9.723-4.09,13.907,13.907,0,0,1,11.453,6.041,67.618,67.618,0,0,1,5.852,9.943L46.213,39.614c2.328,4.342,4.72,8.716,7.205,13.058,1.479,2.612,2.863,5.38,4.342,8.118a2.328,2.328,0,0,0,4.248,0c1.762-3.146,3.367-6.482,5.1-9.723,2.36-4.5,4.846-9.093,7.237-13.593s4.971-9.439,7.457-14.316c2.014-3.839,3.839-7.835,6.1-11.7a13.278,13.278,0,0,1,5.475-5.192,15.732,15.732,0,0,1,7.331-1.731,15.418,15.418,0,0,1,8.181,3.335,12.586,12.586,0,0,1,5.034,7.237A15.984,15.984,0,0,1,112.7,24.448Z" transform="translate(0.01 -0.015)"/>
    <path id="Path_257" data-name="Path 257" d="M120.836,93.047a17.369,17.369,0,0,0-4.971-10.32,21.239,21.239,0,0,0-15.481-6.293H80.12c-1.384,0-1.384,0-.629-1.2,1.353-2.737,2.769-5.475,4.122-8.244,6.7-13.184,13.53-26.368,20.295-39.583a11.768,11.768,0,0,0,1.007-2.517,22.025,22.025,0,0,0,.661-8.779A17.872,17.872,0,0,0,101.2,6.393,19.477,19.477,0,0,0,77.257,2.68a14.977,14.977,0,0,0-6.985,6.954c-1.133,2.36-2.36,4.594-3.587,6.985L47.24,54.377C42.362,63.817,37.548,73.256,32.671,82.7A29.64,29.64,0,0,0,28.549,94.9a17.872,17.872,0,0,0,6.828,15.323,19.068,19.068,0,0,0,13.215,4.594c8.37-.157,16.834,0,25.172,0h27.28a21.144,21.144,0,0,0,15.732-6.828,17.337,17.337,0,0,0,4.059-14.946Zm-4.374,4.5c-.5,7.205-6.293,11.076-12.334,12.586a10.478,10.478,0,0,1-2.612.22H47.869a14.191,14.191,0,0,1-10.226-4.09,14.474,14.474,0,0,1-2.832-17.935C39.4,79.108,44.25,70.015,48.844,60.953c7.772-15.2,15.732-30.269,23.441-45.467.472-.975.944-1.856,1.322-2.832a13.152,13.152,0,0,1,9.251-7.52,14.631,14.631,0,0,1,17.526,9.093,15.732,15.732,0,0,1-1.1,11.831c-6.985,13.467-13.813,26.9-20.672,40.5-1.982,3.618-3.713,7.331-5.727,10.95-1.007,1.731.157,3.146,2.391,3.367h24.983a16.488,16.488,0,0,1,10.478,3.335,14.379,14.379,0,0,1,5.727,13.341Z" transform="translate(61.221 0.231)"/>
  </g>
</svg>
