<svg id="Vrstva_2" data-name="Vrstva 2" xmlns="http://www.w3.org/2000/svg" width="141.661" height="154.167" viewBox="0 0 141.661 154.167">
  <g id="Vrstva_1" data-name="Vrstva 1" transform="translate(0 0)">
    <path id="Path_254" data-name="Path 254" d="M71.461,41.011v79.428h-12.5V93.523c-8.711,0-12.235.514-20.114-4.111C17.579,76.81,22.717,39.837,56.926,39.837H71.461ZM77.04,0a76.908,76.908,0,0,1,63.23,33.009L129.478,40.35a64.037,64.037,0,1,0,1.37,71.476l10.84,7.341A77.079,77.079,0,1,1,77.04,0Zm6.117,41.011v79.428h12.5V93.523c8.711,0,12.235.514,20.114-4.111,21.24-12.577,16.1-49.551-18.083-49.551H83.157Zm16.1,40.84h-3.6V51.386h2.447c9.25,0,17.863,5.628,17.765,15.024S108.532,81.851,99.258,81.851Zm-43.9,0h3.6V51.386H56.51c-9.25,0-17.887,5.628-17.765,15.024S46.086,81.851,55.36,81.851Z" transform="translate(-0.027 0)"/>
  </g>
</svg>
