<svg id="sap_logo" xmlns="http://www.w3.org/2000/svg" width="289.741" height="53.834" viewBox="0 0 289.741 53.834">
  <path id="Path_258" data-name="Path 258" d="M45.107,53.842c-10.638,0-15.924-3.878-15.924-3.878V35.992h.724c.362,11.064,3.18,17,15.2,17,12.59,0,13.611-13.094,5.287-18.884L38.011,25.923c-5.17-3.619-13.171-9.772-7.82-18.742,0,0,3.555-5.648,12.926-5.648a33.5,33.5,0,0,1,15.511,3.4V17.095h-.866c-.284-8.828-2.3-14.774-14.606-14.774-7.755,0-15.343,10.34-3.7,17.889l12.383,8.1c9.772,6.463,10.2,14.541,7.238,19.544C59.08,47.857,56.107,53.842,45.107,53.842Z" transform="translate(-28.42 -0.756)"/>
  <path id="Path_259" data-name="Path 259" d="M104.445,53H90.033v-.8c3.038,0,3.878-2.314,1.293-8.4L88.74,36.938H69.119C66.082,45.624,63.613,52.345,73,52.2V53H57.68v-.8c3.18,0,4.989-.8,10.858-17.23L80.481,2h.5c4.421,10.651,17.592,43.947,17.592,43.947,2.314,5.778,3.761,6.075,5.868,6.217ZM88.365,36.2,78.529,10.725l-9.19,25.412Z" transform="translate(-19.86 -0.617)"/>
  <path id="Path_260" data-name="Path 260" d="M106.641,43.09c0,8.97,1.293,9.113,6.463,9.113V53H96.43v-.8c3.761,0,4.782-1.008,4.782-8.828V8.851c0-5.287-.5-6.088-4.421-6.088V2h10.5c14.438,0,23.744,1.422,23.744,14.671s-9.306,14.464-23.744,14.464h-.646Zm.646-12.745c9.772,0,17.812,0,17.812-13.675,0-14.218-8.621-13.908-17.812-13.908h-.646V30.346Z" transform="translate(-8.523 -0.617)"/>
  <path id="Path_261" data-name="Path 261" d="M174.64,47.928h.646a6.683,6.683,0,0,1-6.334,6.786s-5.17.491-7.859-3.58l-4.421-6.463c-2.21,8.066-16.286,14.916-24.132,5.636s.776-18.484,6.566-21.7l.5.569c-4.265,2.869-9.436,11.181-2.973,18.82,5.067,5.855,15.7,5.17,19.556-4.059L140.232,20.939C132.8,11.09,135.876,2.52,143.864,1.163c4.576-.788,8.078.491,10.211,2.857l-.711.491a8.466,8.466,0,0,0-8.776-2.068c-5.08,1.926-5,8.647-1.577,13.714l21.974,31.629a7.355,7.355,0,0,0,5.429,3.425C172.352,51.211,174.5,50.28,174.64,47.928ZM161.714,35a3.582,3.582,0,0,0-.491-.724,10.043,10.043,0,0,1,6.282-4.356,4.808,4.808,0,0,1,3.994.724A2.921,2.921,0,0,1,171.861,35a3.154,3.154,0,0,1-4.433.349,2.663,2.663,0,0,1-1.073-2.068c.013-1.241-2.417-1-4.64,1.654Z" transform="translate(1.122 -0.93)"/>
  <path id="Path_262" data-name="Path 262" d="M211.576,38.226,212.3,49.3c-5.351,3.542-8.97,4.485-16.726,4.485-14.761,0-25.115-9.19-25.115-26.123,0-17.23,10.341-26.136,25.115-26.136,7.458,0,12.163.724,16.726,4.421l-.724,11.064h-.8c-1.008-13.029-10.56-14.7-15.2-14.7-7.3,0-17.734,2.469-17.734,25.347,0,23.369,10.651,25.321,17.734,25.321,4.421,0,14.774-2.172,15.2-14.761Z" transform="translate(13.135 -0.754)"/>
  <path id="Path_263" data-name="Path 263" d="M218.314,51.963h-10.78v-.8c2.74-.8,2.9-1.15,2.9-4.847V24.225c0-2.456-.582-3.464-3.619-3.878v-.724l8.531-1.667V46.392c0,3.981.362,4.2,2.973,4.847Zm-9.19-43.249a3.025,3.025,0,0,1,3.1-3.154,3.076,3.076,0,1,1,0,6.153,3.012,3.012,0,0,1-3.1-3Z" transform="translate(23.77 0.424)"/>
  <path id="Path_264" data-name="Path 264" d="M247.433,40.711c-.5,3.244-4.421,9.113-12.383,9.113-8.751,0-15.2-6.876-15.2-17.01,0-10.922,6.734-17.734,15.136-17.734,7.458,0,13.611,5.287,13.611,16.726H225.434c.142,11.064,4.847,15.123,10.922,15.42,4.64.207,9.345-3.05,10.5-6.734Zm-3.761-9.785c0-11.219-5.571-15.045-8.764-15.045-4.123,0-9.474,4.912-9.474,15.045Z" transform="translate(27.585 3.21)"/>
  <path id="Path_265" data-name="Path 265" d="M247.41,39.93a3.3,3.3,0,0,1,3.348-3.4,3.335,3.335,0,0,1,3.335,3.4,3.374,3.374,0,0,1-3.335,3.335,3.322,3.322,0,0,1-3.348-3.335Z" transform="translate(35.648 9.485)"/>
</svg>
