<?xml version="1.0" encoding="utf-8"?>
<!-- Generator: Adobe Illustrator 24.0.2, SVG Export Plug-In . SVG Version: 6.00 Build 0)  -->
<svg version="1.1" id="Vrstva_1" xmlns="http://www.w3.org/2000/svg" xmlns:xlink="http://www.w3.org/1999/xlink" x="0px" y="0px"
	 viewBox="0 0 300 92" style="enable-background:new 0 0 300 92;" xml:space="preserve">
<style type="text/css">
	.st0{fill:#FFFFFF;}
</style>
<g>
	<path class="st0" d="M89.7,3.3c-3.5-2.7-7.5-4.2-12-3.3c-4.4,0.9-8,3.2-10.1,7c-4.3,7.7-8.2,15.5-12.3,23.3
		c-2.4,4.5-4.8,9.1-7.2,13.8c-0.2-0.5-0.4-0.7-0.6-1c-5.3-9.8-10.6-19.5-16-29.3c-1.7-3-3.1-6.1-5.5-8.7c-3.1-3.2-6.7-5-11.2-5.1
		c-2.5-0.1-4.6,0.9-6.7,1.9C0.4,5.4-1.8,14.5,1.5,21c4.9,9.7,10.2,19.2,15.3,28.7c5.9,11,11.9,22,17.7,33c3.2,5.9,8,9.2,14.9,8.8
		c5.4-0.3,9.2-3,11.8-7.6c1.8-3.2,3.4-6.5,5.1-9.8c5.2-10,10.5-20,15.7-30c2.9-5.6,5.9-11.2,8.8-16.8c1.3-2.6,2.9-5.2,3.8-8.1
		C96.5,12.9,94.8,7.3,89.7,3.3z M90.5,19.4c-0.9,2.5-2.4,4.8-3.6,7.2c-2.5,4.7-5,9.5-7.5,14.3c-2.4,4.7-4.8,9.4-7.2,14
		c-2.1,4-4.2,7.9-6.3,11.9c-2,3.8-4,7.5-5.9,11.4c-0.7,1.4-1.4,2.8-2.1,4.1c-1.2,2.1-3,3.7-5.3,4.7c-3.3,1.5-6.7,1-9.8-0.5
		c-2.1-1.1-3.5-2.9-4.6-5c-1.7-3.2-3.4-6.4-5.2-9.5c-2.5-4.4-4.6-8.8-7-13.2c-2.2-3.8-4.1-7.7-6.3-11.6C16.2,41,13,34.6,9.5,28.3
		c-1.6-2.9-3.2-5.8-4.7-8.8c-2-4-1.2-9.7,2.2-12.6c2.2-1.9,4.8-3.2,7.8-3.3c4-0.1,6.9,1.9,9.2,4.8c1.9,2.4,3.2,5.3,4.7,8
		c2.8,5.1,5.6,10.1,8.4,15.2c1.9,3.5,3.8,7,5.8,10.5c1.2,2.1,2.3,4.3,3.5,6.5c0.3,0.7,0.8,1.1,1.6,1.1c0.9,0.1,1.4-0.3,1.8-1.1
		c1.4-2.6,2.7-5.2,4.1-7.8c1.9-3.6,3.9-7.3,5.8-10.9c2-3.9,4-7.7,6-11.5c1.6-3.1,3.1-6.3,4.9-9.4c1-1.8,2.5-3.2,4.4-4.2
		c1.8-0.9,3.7-1.4,5.8-1.4c2.5,0.1,4.6,1.3,6.6,2.7c1.9,1.4,3.4,3.3,4,5.8C92,14.6,91.4,17,90.5,19.4z"/>
	<path class="st0" d="M146.2,74.7c-0.4-3.2-1.7-6-4-8.3c-3.4-3.4-7.6-5.1-12.4-5.1h-16.3c-1.1,0-1.1,0-0.5-1
		c1.1-2.2,2.2-4.4,3.3-6.6c5.4-10.6,10.9-21.2,16.3-31.8c0.3-0.7,0.7-1.3,0.8-2c0.6-2.3,0.8-4.7,0.4-7c-0.4-2.9-1.5-5.6-3.5-7.8
		c-4.7-5-12.6-6.8-19.2-3c-2.3,1.4-4.5,2.9-5.6,5.6c-0.9,1.9-1.9,3.7-2.9,5.6C97.4,23.4,92.2,33.5,87,43.6
		c-3.9,7.6-7.8,15.2-11.7,22.8c-1.7,3.1-3.1,6.3-3.3,9.8c-0.3,5.1,1.7,9.1,5.5,12.3c3.1,2.6,6.5,3.8,10.6,3.7c6.7-0.1,13.5,0,20.3,0
		h21.9c4.9,0,9.2-1.9,12.6-5.5C146.1,83.3,146.8,79.2,146.2,74.7z M132.8,88.4c-0.7,0.2-1.4,0.2-2.1,0.2H87.6
		c-3.3,0.1-5.8-1.2-8.2-3.3c-4.6-3.9-4.5-9.8-2.3-14.4c3.7-7.4,7.5-14.7,11.3-22c6.2-12.2,12.5-24.3,18.8-36.5
		c0.4-0.8,0.8-1.5,1.1-2.3c1.3-3.4,4.2-5,7.4-6c5.2-1.6,12.4,1.4,14.1,7.3c0.9,3.2,0.8,6.3-0.8,9.5c-5.6,10.8-11.1,21.6-16.6,32.5
		c-1.6,2.9-3,5.9-4.6,8.8c-0.8,1.4,0.1,2.6,1.9,2.7c6.7,0,13.4,0.1,20.1,0.1c3.1-0.1,5.9,0.9,8.4,2.7c3.5,2.7,4.8,6.3,4.5,10.6
		C142.3,84.1,137.7,87.2,132.8,88.4z"/>
	<polygon class="st0" points="170.4,25.5 165.3,11.2 163.4,11.2 169.4,27.7 169.4,27.8 171.4,27.8 177.3,11.5 177.4,11.2 
		175.5,11.2 	"/>
	<polygon class="st0" points="182.3,11.2 180.5,11.2 180.5,27.8 190.3,27.8 190.3,26.3 182.3,26.3 	"/>
	<path class="st0" d="M204.5,24.8c0.4-0.6,0.7-1.4,0.9-2.2c0.2-0.8,0.3-1.8,0.3-2.9v-0.2h-1.6v0.2c0,0.9,0,1.6-0.2,2.3
		c-0.2,0.6-0.4,1.1-0.6,1.5l-4.5-4.6l2.6-2.2c0.3-0.3,0.6-0.6,0.7-0.9c0.2-0.3,0.2-0.7,0.2-1.2c0-1.1-0.3-2-1-2.5
		c-0.8-0.6-1.8-0.9-3.2-0.9c-1.5,0-2.6,0.3-3.3,1c-0.7,0.6-1,1.5-1,2.5c0,0.4,0,0.7,0.1,1.1c0,0.4,0.3,0.8,0.7,1.2l1.8,1.8l-2.9,2.6
		c-0.4,0.4-0.7,0.8-0.9,1.2c-0.1,0.4-0.2,0.9-0.2,1.4c0,0.7,0.1,1.3,0.3,1.8c0.2,0.5,0.6,1,1.1,1.4c0.4,0.3,1.1,0.6,1.8,0.8
		c0.7,0.2,1.7,0.3,2.7,0.3c1.1,0,2.1-0.2,3-0.6c0.8-0.4,1.6-0.9,2.2-1.6l1.6,1.7h2.3L204.5,24.8z M195.9,15.9
		c-0.2-0.2-0.3-0.4-0.4-0.6v-0.7c0-0.7,0.2-1.1,0.5-1.5c0.4-0.3,1.1-0.5,2.1-0.5c0.9,0,1.5,0.2,1.9,0.5c0.4,0.3,0.6,0.8,0.6,1.4
		c0,0.3,0,0.5-0.1,0.6c-0.1,0.2-0.2,0.3-0.3,0.4l-2.5,2.3L195.9,15.9z M200.7,26.3c-0.7,0.3-1.5,0.5-2.4,0.5c-1.5,0-2.6-0.3-3.2-0.7
		c-0.6-0.5-0.9-1.2-0.9-2.1c0-0.3,0.1-0.7,0.2-0.9c0.1-0.3,0.3-0.5,0.5-0.7l2.7-2.4l4.8,5C201.9,25.5,201.4,26,200.7,26.3z"/>
	<path class="st0" d="M220.9,12.5c-0.8-0.9-1.9-1.3-3.3-1.3h-7v16.6h1.8v-6.4h5.2c0.7,0,1.3-0.1,1.8-0.3c0.6-0.2,1.1-0.6,1.5-1
		c0.4-0.4,0.7-0.9,0.9-1.6c0.2-0.6,0.3-1.4,0.3-2.2C222.1,14.6,221.7,13.3,220.9,12.5z M219.5,19c-0.5,0.6-1.2,0.8-2.1,0.8h-5v-7.1
		h5c0.9,0,1.6,0.3,2.1,0.9c0.5,0.5,0.8,1.4,0.8,2.7C220.3,17.5,220,18.5,219.5,19z"/>
	<path class="st0" d="M234.4,17.7c-0.3-0.5-0.6-1-1.1-1.3c-0.5-0.3-1-0.5-1.6-0.7c-1.4-0.2-2.9-0.2-4.3,0.1
		c-0.8,0.1-1.4,0.2-1.9,0.4h-0.2l0.2,1.4l0.2-0.1c0.5-0.1,1.1-0.2,1.8-0.3c1.2-0.2,2.4-0.3,3.5-0.1c0.4,0.1,0.8,0.3,1.1,0.5
		c0.3,0.2,0.5,0.5,0.7,0.8c0.2,0.4,0.3,0.9,0.3,1.4v0.8c-0.5-0.1-1-0.1-1.5-0.2c-1.7-0.1-3.1,0-4.1,0.2c-0.7,0.1-1.3,0.4-1.7,0.7
		c-0.5,0.3-0.8,0.7-1,1.2c-0.2,0.5-0.3,1-0.3,1.6c0,0.7,0.1,1.3,0.3,1.8c0.2,0.5,0.5,0.9,0.8,1.2c0.4,0.3,0.8,0.6,1.2,0.7
		c0.5,0.1,1,0.2,1.6,0.2c0.7,0,1.6-0.1,2.5-0.4c0.7-0.2,1.6-0.5,2.4-0.8l0.1,1h1.5v-8C234.9,19,234.7,18.3,234.4,17.7z M233.1,25.4
		c-0.8,0.4-1.6,0.6-2.3,0.9c-1.7,0.4-3.1,0.4-3.9-0.3c-0.5-0.3-0.7-1-0.7-1.9c0-0.4,0.1-0.8,0.2-1.1c0.1-0.3,0.2-0.5,0.5-0.7
		c0.3-0.3,0.6-0.4,1.2-0.5c0.5-0.1,1.2-0.2,2-0.2c0.5,0,0.9,0,1.5,0.1c0.4,0,0.9,0,1.5,0.1V25.4z"/>
	<path class="st0" d="M240.6,18.8c0.3-0.4,0.5-0.7,0.8-0.9c0.3-0.2,0.6-0.4,0.9-0.6c0.3-0.1,0.6-0.2,0.8-0.3c0.6-0.1,1.2-0.1,1.6,0
		c0.2,0,0.4,0.1,0.5,0.1l0.2,0.1l0.3-1.4l-0.2,0c-0.1,0-0.3-0.1-0.6-0.1c-0.5-0.1-1.1-0.1-1.9,0c-0.3,0.1-0.7,0.2-1,0.3
		c-0.3,0.1-0.7,0.4-1,0.6c-0.2,0.2-0.4,0.4-0.7,0.6l-0.1-1.4h-1.4v12h1.8V18.8z"/>
	<path class="st0" d="M256.2,26.1c-0.6,0.1-1.1,0.3-1.6,0.3c-0.9,0.2-1.6,0.2-2.2,0c-0.2-0.1-0.4-0.2-0.6-0.4
		c-0.2-0.2-0.3-0.4-0.3-0.7c-0.1-0.3-0.1-0.7-0.1-1.2v-6.9h5v-1.5l-5,0v-3.6h-1.8v3.6h-2.8v1.5h2.8v6.9c0,0.7,0.1,1.3,0.2,1.8
		c0.1,0.5,0.4,0.9,0.6,1.2c0.3,0.3,0.6,0.5,1,0.7c0.4,0.1,0.8,0.2,1.3,0.2c0.5,0,1.1-0.1,1.7-0.2c0.6-0.1,1.2-0.2,2-0.4l0.2,0
		l-0.3-1.4L256.2,26.1z"/>
	<path class="st0" d="M261.7,18.4c1.1-0.5,2-0.8,2.7-1c1.8-0.5,3.2-0.4,3.9,0.4c0.4,0.4,0.7,1.2,0.7,2.1v8h1.8v-8.3
		c0-1.3-0.4-2.3-1.1-3c-1.2-1-3-1.2-5.3-0.6c-0.8,0.2-1.7,0.6-2.8,1l0-1.1h-1.5v12h1.8V18.4z"/>
	<path class="st0" d="M285.2,21.8c0-0.9,0-1.7-0.1-2.5c-0.1-0.7-0.3-1.4-0.7-1.9c-0.4-0.6-0.9-1-1.6-1.3c-0.8-0.3-1.7-0.5-2.9-0.5
		s-2.2,0.2-3,0.5c-0.7,0.3-1.3,0.7-1.7,1.2c-0.4,0.6-0.7,1.3-0.8,2c-0.1,0.8-0.2,1.6-0.2,2.6c0,2,0.4,3.6,1.2,4.6
		c0.8,1,2.2,1.6,4.1,1.6c1.5,0,3.3-0.3,5.3-0.9l0.2-0.1l-0.3-1.4h-0.2c-3.1,0.9-5.3,1.1-6.6,0.6c-0.4-0.2-0.8-0.4-1.1-0.8
		c-0.3-0.3-0.5-0.8-0.6-1.3c-0.1-0.5-0.2-1-0.2-1.7h9.2V21.8z M276,21.3c0-0.7,0.1-1.3,0.1-1.8c0.1-0.6,0.3-1,0.6-1.4
		c0.3-0.4,0.6-0.6,1.1-0.8c0.5-0.2,1.2-0.3,2.1-0.3c0.8,0,1.5,0.1,2,0.2c0.4,0.2,0.8,0.5,1,0.9c0.2,0.3,0.4,0.8,0.5,1.3
		c0,0.6,0.1,1.2,0.1,1.9H276z"/>
	<path class="st0" d="M294.6,15.7c-0.5-0.1-1.1-0.1-1.9,0c-0.3,0.1-0.7,0.2-1,0.3c-0.3,0.1-0.7,0.4-1,0.6c-0.2,0.2-0.4,0.4-0.7,0.6
		l-0.1-1.4h-1.4v12h1.8v-9c0.3-0.4,0.5-0.7,0.8-0.9c0.3-0.2,0.6-0.4,0.9-0.6c0.3-0.1,0.6-0.2,0.8-0.3c0.6-0.1,1.2-0.1,1.6,0
		c0.2,0,0.4,0.1,0.5,0.1l0.2,0.1l0.3-1.4l-0.2,0C295,15.8,294.8,15.8,294.6,15.7z"/>
	<polygon class="st0" points="291.2,13 287.8,10.6 286.9,11.6 291.2,14.8 295.6,11.6 294.7,10.6 	"/>
	<rect x="298.1" y="11.3" class="st0" width="1.9" height="2.6"/>
	<rect x="298.2" y="15.8" class="st0" width="1.8" height="12"/>
	<path class="st0" d="M176.9,52.7l-3.6-7.2c0.8-0.2,1.6-0.6,2.1-1.3c0.6-0.8,0.9-1.9,0.9-3.3c0-1.6-0.4-2.8-1.2-3.6
		c-0.8-0.9-1.8-1.3-3.1-1.3h-7.2v16.7h1.8v-6.9h4.8l3.5,6.8v0.1H176.9z M166.6,44.3v-6.7h5.2c0.8,0,1.5,0.2,2,0.8
		c0.5,0.5,0.7,1.4,0.7,2.5c0,1.2-0.2,2.1-0.7,2.6c-0.5,0.5-1.2,0.8-2,0.8H166.6z"/>
	<path class="st0" d="M190.1,46.7c0-0.9-0.1-1.8-0.1-2.5c-0.1-0.8-0.4-1.5-0.7-2c-0.4-0.6-1-1-1.7-1.3c-0.7-0.3-1.7-0.4-2.9-0.4
		c-1.2,0-2.2,0.1-2.9,0.4c-0.7,0.3-1.3,0.7-1.7,1.3c-0.4,0.5-0.7,1.2-0.8,2c-0.2,0.7-0.2,1.6-0.2,2.5c0,2.1,0.4,3.6,1.2,4.6
		c0.8,1.1,2.2,1.6,4.1,1.6c1.4,0,3.2-0.3,5.3-0.8l0.2-0.1l-0.4-1.5l-0.2,0.1c-3,0.8-5.2,1-6.5,0.5c-0.5-0.1-0.8-0.4-1.1-0.7
		c-0.3-0.4-0.5-0.8-0.6-1.3c-0.2-0.5-0.2-1.1-0.2-1.7h9.2V46.7z M180.9,46.2c0-0.7,0-1.3,0.1-1.9c0.1-0.5,0.3-1,0.6-1.4
		c0.2-0.3,0.6-0.6,1.1-0.8c0.5-0.2,1.2-0.3,2-0.3c0.9,0,1.5,0.1,2,0.3c0.5,0.2,0.8,0.4,1.1,0.8c0.2,0.4,0.4,0.8,0.4,1.4
		c0.1,0.5,0.1,1.2,0.1,1.9H180.9z"/>
	<path class="st0" d="M202.6,42.6c-0.3-0.6-0.6-1-1.1-1.4c-0.5-0.3-1-0.5-1.6-0.6c-1.4-0.3-2.9-0.2-4.3,0c-0.8,0.2-1.4,0.3-1.9,0.4
		h-0.2l0.2,1.4h0.2c0.5-0.1,1.1-0.2,1.8-0.3c1.2-0.2,2.4-0.3,3.5-0.1c0.4,0.1,0.8,0.2,1.1,0.4c0.3,0.3,0.5,0.5,0.7,0.9
		c0.2,0.3,0.3,0.8,0.3,1.4v0.7c-0.5-0.1-1-0.1-1.5-0.1c-1.7-0.1-3.1-0.1-4.1,0.2c-0.7,0.1-1.3,0.3-1.7,0.6c-0.5,0.4-0.8,0.8-1,1.2
		c-0.2,0.5-0.3,1.1-0.3,1.7c0,0.7,0.1,1.2,0.3,1.7c0.2,0.5,0.5,0.9,0.8,1.3c0.4,0.3,0.8,0.5,1.3,0.6c0.4,0.2,0.9,0.2,1.5,0.2
		c0.7,0,1.6-0.1,2.5-0.3c0.8-0.2,1.6-0.5,2.4-0.9l0.1,1h1.5v-7.9C203.1,43.8,202.9,43.1,202.6,42.6z M201.3,50.2
		c-0.8,0.4-1.6,0.7-2.3,0.9c-1.7,0.5-3.1,0.5-3.9-0.2c-0.4-0.4-0.7-1-0.7-1.9c0-0.5,0.1-0.8,0.2-1.2c0.1-0.3,0.2-0.5,0.5-0.7
		c0.3-0.2,0.7-0.4,1.2-0.5c0.5-0.1,1.2-0.1,2-0.1h1.5c0.4,0,0.9,0.1,1.5,0.1V50.2z"/>
	<path class="st0" d="M207.2,49.2c0,1.3,0.2,2.3,0.7,2.8c0.4,0.6,1.2,0.8,2.1,0.9c0.3,0,0.7,0,1-0.1c0.3,0,0.8-0.1,1.3-0.2l0.2,0
		l-0.3-1.4l-0.2,0.1c-0.3,0.1-0.6,0.1-0.8,0.2c-0.6,0.1-1,0.1-1.4,0c-0.2-0.1-0.3-0.2-0.4-0.3c-0.1-0.2-0.2-0.4-0.3-0.7
		c-0.1-0.3-0.1-0.7-0.1-1.2l0-14.3h-1.8V49.2z"/>
	<rect x="215.5" y="36.1" class="st0" width="1.9" height="2.6"/>
	<rect x="215.6" y="40.7" class="st0" width="1.8" height="12"/>
	<path class="st0" d="M222.7,49c0,0.7,0.1,1.3,0.2,1.8c0.1,0.5,0.4,0.9,0.6,1.2c0.3,0.3,0.6,0.5,1,0.7c0.4,0.1,0.8,0.2,1.3,0.2
		c0.5,0,1.1-0.1,1.7-0.2c0.6-0.1,1.2-0.2,2-0.4l0.2,0l-0.3-1.4l-0.2,0.1c-0.6,0.1-1.1,0.3-1.6,0.3c-0.9,0.2-1.6,0.2-2.2,0
		c-0.2-0.1-0.4-0.2-0.6-0.4c-0.2-0.2-0.3-0.4-0.3-0.7c-0.1-0.3-0.1-0.7-0.1-1.2v-6.9h5v-1.5l-5,0V37h-1.8v3.6h-2.8v1.5h2.8V49z"/>
	<path class="st0" d="M237,55c0.3-0.4,0.6-0.9,0.9-1.5l5.2-12.8h-1.8l-3.9,9.9l-3.9-9.9h-1.8l4.8,12h0.2l-0.2,0.4
		c-0.2,0.4-0.3,0.7-0.5,1c-0.2,0.3-0.4,0.5-0.7,0.7c-0.3,0.2-0.6,0.3-0.9,0.5c-0.4,0.1-0.8,0.3-1.3,0.4l-0.2,0l0.3,1.4l0.2,0
		c0.5-0.1,1-0.3,1.5-0.4c0.4-0.2,0.9-0.3,1.2-0.6C236.3,55.8,236.6,55.4,237,55z"/>
	<path class="st0" d="M174.9,75.7c-0.8,0.2-1.5,0.3-2.2,0.4c-1.6,0.2-2.9,0.2-4-0.2c-0.6-0.2-1.1-0.6-1.5-1.1
		c-0.4-0.5-0.7-1.3-0.9-2.1c-0.2-0.9-0.3-2.1-0.3-3.4c0-1.4,0.1-2.5,0.3-3.4c0.2-0.9,0.5-1.6,0.9-2.1c0.4-0.5,0.9-0.9,1.5-1.1
		c1-0.4,2.4-0.4,4-0.2c0.7,0.1,1.4,0.2,2.2,0.4l0.2,0l0.3-1.5l-0.2,0c-0.8-0.2-1.6-0.3-2.3-0.4c-1.8-0.2-3.5-0.2-4.8,0.3
		c-0.8,0.3-1.5,0.8-2.1,1.4c-0.6,0.7-1,1.6-1.3,2.6c-0.3,1.1-0.4,2.4-0.4,4.1c0,1.6,0.1,3,0.4,4c0.3,1.1,0.7,2,1.3,2.6
		c0.6,0.7,1.2,1.1,2.1,1.4c0.8,0.3,1.7,0.4,2.7,0.4c0.7,0,1.4,0,2.2-0.1c0.7-0.1,1.5-0.2,2.4-0.4l0.2,0l-0.3-1.6L174.9,75.7z"/>
	<path class="st0" d="M189.1,69c-0.1-0.8-0.4-1.4-0.8-2c-0.4-0.5-1-1-1.7-1.3c-0.8-0.3-1.8-0.4-3-0.4s-2.2,0.1-2.9,0.4
		c-0.7,0.3-1.3,0.8-1.7,1.3c-0.4,0.6-0.7,1.2-0.8,2c-0.2,0.8-0.2,1.6-0.2,2.5s0,1.8,0.2,2.5c0.1,0.8,0.4,1.5,0.8,2
		c0.4,0.6,1,1,1.7,1.3c0.7,0.3,1.7,0.4,2.9,0.4s2.2-0.1,3-0.4c0.7-0.3,1.3-0.7,1.7-1.3c0.4-0.5,0.7-1.2,0.8-2
		c0.1-0.7,0.2-1.6,0.2-2.5S189.2,69.8,189.1,69z M187.4,73.7c-0.1,0.6-0.3,1.1-0.6,1.5c-0.2,0.4-0.6,0.7-1.1,0.9
		c-0.5,0.2-1.2,0.3-2.1,0.3c-0.8,0-1.5-0.1-2-0.3c-0.5-0.2-0.9-0.5-1.2-0.9c-0.2-0.4-0.4-0.9-0.5-1.5c-0.1-0.6-0.1-1.3-0.1-2.2
		c0-0.8,0-1.6,0.1-2.2c0.1-0.6,0.3-1.1,0.5-1.5c0.3-0.4,0.7-0.7,1.2-0.8c0.5-0.3,1.2-0.3,2-0.3c0.9,0,1.6,0,2.1,0.3
		c0.5,0.1,0.9,0.4,1.1,0.8c0.3,0.4,0.5,0.9,0.6,1.5c0.1,0.6,0.1,1.4,0.1,2.2C187.5,72.4,187.5,73.1,187.4,73.7z"/>
	<path class="st0" d="M197.1,65.6c-0.8,0.2-1.7,0.6-2.8,1l0-1.1h-1.5v12h1.8v-9.4c1.1-0.5,2-0.8,2.7-1c1.8-0.5,3.2-0.4,3.9,0.4
		c0.4,0.4,0.7,1.2,0.7,2.1v8h1.8v-8.3c0-1.3-0.4-2.3-1.1-3C201.3,65.2,199.5,65,197.1,65.6z"/>
	<path class="st0" d="M215.7,71.4c-0.4-0.2-0.9-0.4-1.6-0.6c-0.6-0.1-1.4-0.3-2.2-0.4c-0.7-0.1-1.3-0.2-1.8-0.3
		c-0.4-0.1-0.8-0.2-1-0.3c-0.2-0.1-0.4-0.3-0.5-0.5c-0.1-0.2-0.1-0.4-0.1-0.7c0-0.7,0.3-1.2,0.8-1.4c0.6-0.3,1.5-0.4,2.6-0.4
		c0.4,0,0.9,0,1.3,0.1c0.4,0,0.8,0.1,1.2,0.1c0.4,0,0.7,0.1,0.9,0.1c0.3,0.1,0.5,0.1,0.6,0.1l0.2,0l0.3-1.4l-0.2,0
		c-0.1,0-0.3,0-0.6-0.1c-0.3-0.1-0.6-0.1-1-0.2c-0.4-0.1-0.8-0.1-1.3-0.1c-0.5,0-0.9-0.1-1.4-0.1c-0.7,0-1.4,0-2,0.1
		c-0.6,0.1-1.1,0.3-1.6,0.5c-0.5,0.2-0.8,0.6-1.1,1c-0.2,0.4-0.4,1-0.4,1.6c0,0.6,0.1,1,0.3,1.4c0.2,0.4,0.5,0.7,0.8,0.9
		c0.4,0.2,0.9,0.4,1.4,0.5c0.6,0.1,1.3,0.3,2.1,0.4c0.7,0.1,1.3,0.2,1.8,0.3c0.5,0.1,0.9,0.2,1.2,0.4c0.3,0.1,0.5,0.3,0.6,0.6
		c0.1,0.2,0.2,0.5,0.2,0.9c0,0.5-0.1,0.8-0.3,1.1c-0.2,0.3-0.5,0.6-0.8,0.7c-0.4,0.2-0.8,0.3-1.2,0.4c-1.2,0.2-2.4,0.1-3.7,0
		c-0.8-0.1-1.4-0.2-1.9-0.2l-0.2,0l-0.2,1.5l0.2,0c0.2,0,0.4,0,0.7,0.1c0.3,0,0.7,0.1,1.1,0.1c0.4,0,0.8,0.1,1.3,0.1
		c0.5,0,0.9,0,1.4,0c0.6,0,1.3-0.1,1.9-0.2c0.7-0.1,1.3-0.3,1.8-0.6c0.5-0.3,1-0.7,1.3-1.2c0.3-0.5,0.5-1.1,0.5-1.9
		c0-0.6-0.1-1.2-0.3-1.6C216.4,72,216.1,71.6,215.7,71.4z"/>
	<path class="st0" d="M228.9,75.1c-1.7,0.8-3.2,1.2-4.4,1.2c-0.9,0-1.5-0.2-2-0.7c-0.4-0.4-0.7-1.2-0.7-2.1l0-8h-1.8v8.3
		c0,1.3,0.4,2.3,1.1,3c0.7,0.6,1.7,1,2.9,1c1.4,0,3.1-0.4,4.9-1.3l0.1,1.1h1.5v-12h-1.8V75.1z"/>
	<path class="st0" d="M239.5,76.1c-0.3,0.1-0.6,0.1-0.8,0.2c-0.6,0.1-1,0.1-1.4,0c-0.2-0.1-0.3-0.2-0.4-0.3
		c-0.1-0.2-0.2-0.4-0.3-0.7c-0.1-0.3-0.1-0.7-0.1-1.2l0-14.3h-1.8v14.4c0,1.3,0.2,2.3,0.7,2.8c0.4,0.6,1.2,0.8,2.1,0.9
		c0.3,0,0.7,0,1-0.1c0.3,0,0.8-0.1,1.3-0.2l0.2,0l-0.3-1.4L239.5,76.1z"/>
	<path class="st0" d="M250.7,75.8c-0.6,0.1-1.1,0.3-1.6,0.3c-0.9,0.2-1.6,0.2-2.2,0c-0.2-0.1-0.4-0.2-0.6-0.4
		c-0.2-0.2-0.3-0.4-0.3-0.7c-0.1-0.3-0.1-0.7-0.1-1.2V67h5v-1.5l-5,0v-3.6h-1.8v3.6h-2.8V67h2.8v6.9c0,0.7,0.1,1.3,0.2,1.8
		c0.1,0.5,0.4,0.9,0.6,1.2c0.3,0.3,0.6,0.5,1,0.7c0.4,0.1,0.8,0.2,1.3,0.2c0.5,0,1.1-0.1,1.7-0.2c0.6-0.1,1.2-0.2,2-0.4l0.2,0
		l-0.3-1.4L250.7,75.8z"/>
	<rect x="254.5" y="61" class="st0" width="1.9" height="2.6"/>
	<rect x="254.6" y="65.5" class="st0" width="1.8" height="12"/>
	<path class="st0" d="M264.8,65.6c-0.8,0.2-1.7,0.6-2.8,1l0-1.1h-1.5v12h1.8v-9.4c1.1-0.5,2-0.8,2.7-1c1.8-0.5,3.2-0.4,3.9,0.4
		c0.4,0.4,0.7,1.2,0.7,2.1v8h1.8v-8.3c0-1.3-0.4-2.3-1.1-3C268.9,65.2,267.1,65,264.8,65.6z"/>
	<path class="st0" d="M286.7,65.3h-5.5c-0.3-0.1-0.6-0.1-1-0.1c-1,0-1.8,0.1-2.5,0.3c-0.7,0.1-1.2,0.4-1.6,0.7
		c-0.5,0.3-0.8,0.7-1,1.2c-0.2,0.4-0.3,1-0.3,1.6c0,0.8,0.2,1.6,0.6,2.1c0.3,0.5,0.8,0.9,1.5,1.2c-0.3,0.3-0.6,0.6-0.8,0.9
		c-0.4,0.5-0.5,0.9-0.5,1.3c0,0.4,0.1,0.7,0.5,1c-0.6,0.2-1,0.5-1.3,0.9c-0.4,0.4-0.5,1-0.5,1.7c0,0.6,0.1,1.1,0.3,1.5
		c0.2,0.5,0.5,0.8,1,1.1c0.5,0.3,1.2,0.5,2,0.6c0.7,0.1,1.7,0.2,2.9,0.2s2.2-0.1,2.9-0.2c0.8-0.2,1.5-0.4,2-0.7
		c0.5-0.3,0.8-0.7,1-1.1c0.2-0.5,0.3-1,0.3-1.5c0-0.6-0.1-1.1-0.3-1.6c-0.2-0.4-0.5-0.8-1-1.1c-0.4-0.3-1.1-0.5-1.9-0.6
		c-0.7-0.2-1.7-0.2-2.9-0.2c-1.1,0-2.1,0-2.8,0.2c-0.6-0.2-0.6-0.5-0.6-0.6c0-0.2,0.2-0.4,0.4-0.7c0.2-0.2,0.4-0.5,0.7-0.8
		c0.5,0.1,1.1,0.2,1.9,0.2c0.9,0,1.8-0.1,2.5-0.3c0.6-0.1,1.2-0.4,1.6-0.7c0.4-0.3,0.8-0.7,0.9-1.2c0.2-0.5,0.3-1,0.3-1.6
		c0-0.7-0.2-1.4-0.5-1.8c-0.1-0.3-0.3-0.5-0.6-0.7h2.3V65.3z M278.2,75.9c0.6-0.1,1.4-0.1,2.3-0.1c0.9,0,1.7,0,2.3,0.1
		c0.6,0.1,1,0.3,1.4,0.5c0.3,0.1,0.5,0.3,0.6,0.6c0.1,0.3,0.1,0.6,0.1,1c0,0.3,0,0.6-0.1,0.9c-0.1,0.3-0.3,0.5-0.7,0.7
		c-0.3,0.1-0.7,0.3-1.3,0.4c-0.6,0.1-1.4,0.1-2.3,0.1c-0.9,0-1.7,0-2.2-0.1c-0.6-0.1-1.1-0.3-1.4-0.4c-0.3-0.2-0.5-0.4-0.6-0.7
		c-0.1-0.3-0.2-0.6-0.2-0.9c0-0.4,0.1-0.7,0.2-1c0.1-0.3,0.3-0.5,0.6-0.6C277.2,76.2,277.7,76,278.2,75.9z M283.6,70.1
		c-0.1,0.3-0.3,0.5-0.5,0.7c-0.3,0.2-0.7,0.4-1.1,0.5c-0.5,0.1-1.1,0.2-1.8,0.2c-0.7,0-1.4-0.1-1.8-0.2c-0.5-0.1-0.9-0.3-1.1-0.5
		c-0.3-0.2-0.5-0.5-0.6-0.7c-0.1-0.4-0.2-0.7-0.2-1.1c0-0.8,0.3-1.4,0.8-1.8c0.5-0.5,1.5-0.7,2.9-0.7c1.3,0,2.3,0.2,2.8,0.7
		c0.6,0.4,0.8,1,0.8,1.8C283.8,69.4,283.8,69.7,283.6,70.1z"/>
</g>
</svg>
