<?xml version="1.0" encoding="utf-8"?>
<!-- Generator: Adobe Illustrator 24.0.2, SVG Export Plug-In . SVG Version: 6.00 Build 0)  -->
<svg version="1.1" id="Vrstva_1" xmlns="http://www.w3.org/2000/svg" xmlns:xlink="http://www.w3.org/1999/xlink" x="0px" y="0px"
	 viewBox="0 0 111 66.3" style="enable-background:new 0 0 111 66.3;" xml:space="preserve">
<style type="text/css">
	.st0{fill:#FFF;}
</style>
<g id="Vrstva_2_1_">
	<g id="Vrstva_1-2">
		<rect x="0" class="st0" width="10.1" height="50.5"/>
		<rect x="20.2" class="st0" width="10.1" height="50.5"/>
		<rect x="40.4" class="st0" width="10.1" height="50.5"/>
		<rect x="60.5" class="st0" width="50.5" height="10.1"/>
		<rect x="60.5" y="20.2" class="st0" width="50.5" height="10.1"/>
		<rect x="60.5" y="40.4" class="st0" width="50.5" height="10.1"/>
		<path class="st0" d="M1.4,62.8v2.1c0,0.3,0.2,0.6,0.6,0.6c0,0,0,0,0,0h1.7c0.1,0,0.1,0,0.1,0.1c0,0,0,0,0,0v0.7H1.9
			c-0.8,0-1.4-0.6-1.4-1.4c0,0,0,0,0,0v-2c0-0.8,0.7-1.4,1.4-1.4h1.8v0.7c0,0.1,0,0.1-0.1,0.1c0,0,0,0,0,0H1.9
			C1.6,62.2,1.4,62.4,1.4,62.8C1.4,62.8,1.4,62.8,1.4,62.8z"/>
		<path class="st0" d="M9.9,61.4v0.7c0,0.1,0,0.1-0.1,0.1l0,0H8.6c-0.2,0-0.5,0.2-0.5,0.4v3.6H7.4c-0.1,0-0.1,0-0.1-0.1c0,0,0,0,0,0
			v-4.8H8c0.1,0,0.1,0,0.1,0.1c0,0,0,0,0,0v0.2c0.2-0.2,0.4-0.3,0.7-0.3H9.9z"/>
		<path class="st0" d="M13.2,64.8v-2c0-0.7,0.5-1.4,1.3-1.4c0.1,0,0.1,0,0.2,0h1.3c0.7,0,1.3,0.5,1.4,1.3c0,0,0,0.1,0,0.1v1.1
			c0,0.2,0,0.3-0.3,0.3h-2.7c-0.2,0-0.3-0.1-0.4-0.2v0.9c0,0.3,0.2,0.6,0.6,0.6c0,0,0,0,0,0H17c0.1,0,0.1,0,0.1,0.1c0,0,0,0,0,0v0.7
			h-2.5C13.8,66.3,13.1,65.6,13.2,64.8C13.2,64.8,13.2,64.8,13.2,64.8z M14,62.8v0.5c0,0.1,0,0.1,0.1,0.1h2.3c0.1,0,0.1,0,0.1-0.1
			v-0.5c0-0.3-0.1-0.5-0.4-0.6c0,0-0.1,0-0.1,0h-1.3c-0.3,0-0.5,0.2-0.6,0.5C14,62.7,14,62.8,14,62.8z"/>
		<path class="st0" d="M24.7,62.7v3.2c0,0.2-0.1,0.3-0.3,0.3h-2.3c-0.8,0-1.4-0.6-1.4-1.4c0,0,0,0,0,0v-0.3c0-0.8,0.6-1.4,1.4-1.4
			c0,0,0,0,0,0h1.7c0.1,0,0.1,0,0.1-0.1l0,0v-0.2c0-0.3-0.2-0.6-0.5-0.6c0,0,0,0-0.1,0h-2c-0.1,0-0.1,0-0.1-0.1l0,0v-0.7h2
			c0.7-0.1,1.4,0.4,1.5,1.2C24.7,62.6,24.7,62.7,24.7,62.7z M22.1,65.4h1.7c0.1,0,0.1,0,0.1-0.1c0,0,0,0,0,0v-1.5
			c-0.1,0.1-0.1,0.1-0.3,0.2h-1.5c-0.3,0-0.6,0.2-0.6,0.6c0,0,0,0,0,0v0.3C21.5,65.1,21.7,65.4,22.1,65.4
			C22.1,65.4,22.1,65.4,22.1,65.4z"/>
		<path class="st0" d="M30.7,65.6v0.7h-1c-0.8,0-1.4-0.7-1.4-1.4c0,0,0,0,0,0V59H29c0.1,0,0.1,0,0.1,0.1l0,0v2.5
			c0-0.1,0.1-0.2,0.3-0.2h1v0.7c0,0.1,0,0.1-0.1,0.1c0,0,0,0,0,0h-1.2v2.7c0,0.3,0.2,0.6,0.6,0.6c0,0,0,0,0,0h0.9c0,0,0.1,0,0.1,0
			C30.7,65.5,30.7,65.5,30.7,65.6z"/>
		<path class="st0" d="M34.8,59.3v0.8h-0.7C34,60.1,34,60,34,60l0,0v-0.8h0.7C34.8,59.2,34.8,59.2,34.8,59.3L34.8,59.3z M34.8,61.4
			v4.8h-0.7c-0.1,0-0.1,0-0.1-0.1l0,0v-4.8h0.7C34.8,61.4,34.8,61.4,34.8,61.4z"/>
		<path class="st0" d="M37.9,61.3h0.8c0.1,0,0.1,0,0.1,0.1l1.4,3.5l1.4-3.5c0,0,0.1-0.1,0.1-0.1h0.8l-2,4.8c0,0-0.1,0.1-0.1,0.1H40
			c-0.1,0-0.1,0-0.1-0.1L37.9,61.3z"/>
		<path class="st0" d="M45.7,64.8v-2c0-0.7,0.5-1.4,1.3-1.4c0.1,0,0.1,0,0.2,0h1.3c0.7-0.1,1.4,0.5,1.4,1.2c0,0.1,0,0.1,0,0.2v1.1
			c0,0.2,0,0.3-0.3,0.3h-2.7c-0.2,0-0.3-0.1-0.4-0.2v0.9c0,0.3,0.2,0.6,0.6,0.6c0,0,0,0,0,0h2.4c0,0,0.1,0,0.1,0.1c0,0,0,0,0,0v0.7
			h-2.5C46.3,66.3,45.7,65.7,45.7,64.8C45.7,64.9,45.7,64.8,45.7,64.8z M46.5,62.8v0.5c0,0.1,0,0.1,0.1,0.1h2.3c0.1,0,0.1,0,0.1-0.1
			v-0.5c0-0.4-0.2-0.6-0.6-0.6h-1.3c-0.3,0-0.5,0.2-0.6,0.5C46.5,62.7,46.5,62.8,46.5,62.8z"/>
		<path class="st0" d="M61,63.3v-0.6c0-0.7,0.5-1.3,1.2-1.3c0.1,0,0.1,0,0.2,0H65V62c0,0.1,0,0.1-0.1,0.1l0,0h-2.6
			c-0.2,0-0.5,0.1-0.5,0.4c0,0,0,0.1,0,0.1v0.3c0,0,0,0.1,0.1,0.1l3,0.7c0.2,0,0.3,0.2,0.3,0.3v0.9c0,0.7-0.5,1.3-1.2,1.3
			c-0.1,0-0.2,0-0.2,0h-2.7v-0.7c0-0.1,0-0.1,0.1-0.1h2.6c0.3,0,0.6-0.2,0.6-0.5c0,0,0,0,0,0v-0.5c0-0.1,0-0.1-0.1-0.1l-3-0.8
			C61.1,63.6,61,63.5,61,63.3z"/>
		<path class="st0" d="M73.6,65.6v0.7h-1c-0.8,0-1.4-0.7-1.4-1.4V59H72c0.1,0,0.1,0,0.1,0.1l0,0v2.5c0-0.1,0.2-0.2,0.3-0.2h1v0.7
			c0,0.1,0,0.1-0.1,0.1H72v2.7c0,0.3,0.2,0.6,0.6,0.6c0,0,0,0,0,0h0.9C73.6,65.4,73.6,65.5,73.6,65.6C73.6,65.5,73.6,65.5,73.6,65.6
			z"/>
		<path class="st0" d="M80,61.3c0.1,0,0.1,0,0.1,0.1v3.4c0,0.3,0.2,0.6,0.6,0.6c0,0,0,0,0,0H82c0.3,0,0.6-0.3,0.6-0.6l0,0v-3.4
			c0-0.1,0.1-0.1,0.1-0.1h0.7v3.5c0,0.8-0.6,1.4-1.4,1.4c0,0,0,0,0,0h-1.3c-0.8,0-1.4-0.6-1.4-1.4c0,0,0,0,0,0v-3.5H80z"/>
		<path class="st0" d="M90.7,61.4h1.1c0.3,0,0.5,0.1,0.7,0.3V59c0-0.1,0-0.1,0.1-0.1l0,0h0.7V66c0,0.2-0.1,0.3-0.3,0.3h-2.3
			c-0.8,0-1.4-0.6-1.4-1.4c0,0,0,0,0-0.1v-2C89.3,62,89.9,61.4,90.7,61.4C90.7,61.4,90.7,61.4,90.7,61.4z M90.7,65.4h1.7
			c0.1,0,0.1,0,0.1-0.1c0,0,0,0,0,0v-2.6c0-0.3-0.2-0.5-0.5-0.5h-1.3c-0.3,0-0.6,0.2-0.6,0.6c0,0,0,0,0,0v2.1
			C90.2,65.2,90.4,65.4,90.7,65.4C90.8,65.4,90.8,65.4,90.7,65.4L90.7,65.4z"/>
		<path class="st0" d="M100.3,59.3v0.8h-0.7c-0.1,0-0.1,0-0.1-0.1l0,0v-0.8h0.7C100.2,59.2,100.2,59.2,100.3,59.3
			C100.3,59.2,100.3,59.3,100.3,59.3z M100.3,61.4v4.8h-0.7c-0.1,0-0.1,0-0.1-0.1l0,0v-4.8h0.7C100.2,61.4,100.2,61.4,100.3,61.4
			C100.3,61.4,100.3,61.4,100.3,61.4z"/>
		<path class="st0" d="M106.2,64.9v-2.2c0-0.8,0.6-1.4,1.4-1.4h1.3c0.8,0,1.4,0.6,1.4,1.4v2.2c0,0.8-0.6,1.4-1.4,1.4h-1.3
			C106.9,66.3,106.2,65.7,106.2,64.9C106.2,64.9,106.2,64.9,106.2,64.9z M107.1,62.7v2.3c0,0.3,0.3,0.6,0.6,0.6l0,0h1.3
			c0.3,0,0.6-0.3,0.6-0.6l0,0v-2.3c0-0.3-0.3-0.6-0.6-0.6h-1.3C107.3,62.1,107.1,62.4,107.1,62.7z"/>
	</g>
</g>
</svg>
