<svg id="Vrstva_1" data-name="Vrstva 1" xmlns="http://www.w3.org/2000/svg" viewBox="0 0 280 43.49"><defs><style>.cls-1{fill:none;}.cls-2{fill:#25282a75;}</style></defs><title>vlconsulting</title><path class="cls-1" d="M75,32.22A6.25,6.25,0,0,0,71,31c-3.15,0-6.31-.05-9.45-.05-.85,0-1.27-.61-.9-1.27.76-1.36,1.42-2.77,2.16-4.13,2.59-5.13,5.18-10.22,7.81-15.3A5.9,5.9,0,0,0,71,5.74,5.52,5.52,0,0,0,64.41,2.3a5,5,0,0,0-3.49,2.83,10.52,10.52,0,0,1-.51,1.08c-3,5.74-5.92,11.43-8.84,17.17-1.79,3.43-3.58,6.87-5.31,10.34-1,2.16-1.08,4.94,1.08,6.78a5.38,5.38,0,0,0,3.86,1.55H71.46a3.66,3.66,0,0,0,1-.09c2.31-.57,4.47-2,4.66-4.75A5.43,5.43,0,0,0,75,32.22Z" transform="translate(-10 -0.25)"/><path class="cls-1" d="M52.56,9.51A6,6,0,0,0,53,6a4.79,4.79,0,0,0-1.9-2.73A5.74,5.74,0,0,0,48,2a5.88,5.88,0,0,0-2.72.66,5,5,0,0,0-2.08,2c-.84,1.47-1.54,3-2.3,4.43-.94,1.79-1.88,3.58-2.82,5.4s-1.84,3.44-2.72,5.14c-.66,1.22-1.28,2.44-1.93,3.66a.78.78,0,0,1-.85.52.75.75,0,0,1-.75-.52c-.57-1-1.09-2.07-1.65-3.06-.94-1.63-1.84-3.28-2.72-4.93-1.33-2.4-2.64-4.76-3.95-7.15a27.52,27.52,0,0,0-2.22-3.76A5.2,5.2,0,0,0,17,2.07a5.89,5.89,0,0,0-3.67,1.56,5.13,5.13,0,0,0-1,5.92C13,11,13.7,12.32,14.46,13.69c1.65,3,3.16,6,4.8,8.89,1,1.83,1.92,3.67,3,5.45,1.13,2.08,2.11,4.15,3.3,6.21.85,1.46,1.64,3,2.44,4.47a5.15,5.15,0,0,0,6.77,2.59,5.22,5.22,0,0,0,2.49-2.21c.34-.62.66-1.28,1-1.93C39.1,35.33,40,33.58,41,31.79s2-3.7,3-5.6c1.12-2.16,2.26-4.37,3.39-6.57s2.35-4.52,3.52-6.73A31.42,31.42,0,0,0,52.56,9.51Z" transform="translate(-10 -0.25)"/><path class="cls-1" d="M134.88,18.72a3.76,3.76,0,0,0-1.76-1.34,11,11,0,0,0-6.43,0,3.79,3.79,0,0,0-1.77,1.34A5.4,5.4,0,0,0,124.1,21a24.09,24.09,0,0,0-.22,3.41,24.28,24.28,0,0,0,.22,3.45,5.49,5.49,0,0,0,.82,2.32,3.69,3.69,0,0,0,1.77,1.32,9.28,9.28,0,0,0,3.21.44,9.38,9.38,0,0,0,3.22-.44,3.57,3.57,0,0,0,1.76-1.32,5.5,5.5,0,0,0,.83-2.32,24.43,24.43,0,0,0,.21-3.45,24.22,24.22,0,0,0-.21-3.41A5.4,5.4,0,0,0,134.88,18.72Z" transform="translate(-10 -0.25)"/><path class="cls-1" d="M275.41,17.69a3.36,3.36,0,0,0-1.22,2.87,4.68,4.68,0,0,0,.27,1.63,2.55,2.55,0,0,0,.87,1.17,4.69,4.69,0,0,0,1.73.75,15,15,0,0,0,5.57,0,4.63,4.63,0,0,0,1.72-.75,2.59,2.59,0,0,0,.89-1.17,4.93,4.93,0,0,0,.26-1.63,3.34,3.34,0,0,0-1.23-2.87c-.82-.63-2.32-1-4.42-1S276.25,17.06,275.41,17.69Z" transform="translate(-10 -0.25)"/><path class="cls-1" d="M273.78,33a3.85,3.85,0,0,0-.27,1.49,3.76,3.76,0,0,0,.27,1.5,2.22,2.22,0,0,0,1,1,5.61,5.61,0,0,0,2.09.64,22.76,22.76,0,0,0,3.53.22,22.57,22.57,0,0,0,3.51-.22A5.6,5.6,0,0,0,286,37a2.19,2.19,0,0,0,1-1,3.75,3.75,0,0,0,.28-1.5A3.83,3.83,0,0,0,287,33a2.09,2.09,0,0,0-.95-1,6.74,6.74,0,0,0-2.12-.65,24.44,24.44,0,0,0-3.58-.22,22.34,22.34,0,0,0-3.5.21,6.32,6.32,0,0,0-2.08.64A2.37,2.37,0,0,0,273.78,33Z" transform="translate(-10 -0.25)"/><path class="cls-2" d="M52.7,13.21A25.1,25.1,0,0,0,54.49,9.4a6.54,6.54,0,0,0-2.31-7.47A6.85,6.85,0,0,0,46.54.37a6.74,6.74,0,0,0-4.75,3.3c-2,3.62-3.86,7.29-5.79,11q-1.7,3.18-3.38,6.49a2.31,2.31,0,0,0-.28-.47c-2.5-4.61-5-9.17-7.53-13.78a20.32,20.32,0,0,0-2.59-4.09A7.27,7.27,0,0,0,17,.37a6.66,6.66,0,0,0-3.14.9,6.64,6.64,0,0,0-3.12,9c2.31,4.57,4.8,9,7.21,13.5,2.77,5.17,5.6,10.36,8.32,15.53,1.51,2.77,3.76,4.32,7,4.13a6.44,6.44,0,0,0,5.56-3.58c.84-1.5,1.6-3,2.39-4.6,2.45-4.7,4.95-9.41,7.39-14.11C49.92,18.49,51.34,15.85,52.7,13.21ZM44,26.19c-1,1.9-2,3.72-3,5.6s-1.88,3.54-2.76,5.37c-.34.65-.66,1.31-1,1.93a5.22,5.22,0,0,1-2.49,2.21A5.15,5.15,0,0,1,28,38.71c-.8-1.5-1.59-3-2.44-4.47-1.19-2.06-2.17-4.13-3.3-6.21-1-1.78-1.93-3.62-3-5.45-1.64-2.92-3.15-5.93-4.8-8.89C13.7,12.32,13,11,12.25,9.55a5.13,5.13,0,0,1,1-5.92A5.89,5.89,0,0,1,17,2.07a5.2,5.2,0,0,1,4.33,2.26A27.52,27.52,0,0,1,23.5,8.09c1.31,2.39,2.62,4.75,3.95,7.15.88,1.65,1.78,3.3,2.72,4.93.56,1,1.08,2,1.65,3.06a.75.75,0,0,0,.75.52.78.78,0,0,0,.85-.52c.65-1.22,1.27-2.44,1.93-3.66.88-1.7,1.82-3.44,2.72-5.14S40,10.82,40.89,9c.76-1.45,1.46-3,2.3-4.43a5,5,0,0,1,2.08-2A5.88,5.88,0,0,1,48,2a5.74,5.74,0,0,1,3.1,1.26A4.79,4.79,0,0,1,53,6a6,6,0,0,1-.43,3.54,31.42,31.42,0,0,1-1.7,3.38c-1.17,2.21-2.35,4.47-3.52,6.73S45.07,24,44,26.19Z" transform="translate(-10 -0.25)"/><path class="cls-2" d="M76.88,31.61A8,8,0,0,0,71,29.2H63.37c-.52,0-.52,0-.23-.46.51-1,1-2.07,1.55-3.11,2.54-5,5.13-10,7.67-14.95a4.88,4.88,0,0,0,.38-.94,8,8,0,0,0,.19-3.3,6.71,6.71,0,0,0-1.65-3.66,7.36,7.36,0,0,0-9-1.42A5.77,5.77,0,0,0,59.61,4c-.42.89-.89,1.74-1.36,2.64q-3.68,7.11-7.34,14.24l-5.5,10.73a11,11,0,0,0-1.56,4.61A6.75,6.75,0,0,0,46.44,42a7.08,7.08,0,0,0,5,1.73c3.15-.05,6.34,0,9.55,0h10.3a8,8,0,0,0,5.92-2.58,6.49,6.49,0,0,0,1.56-5.65A6.56,6.56,0,0,0,76.88,31.61Zm.23,5.6c-.19,2.73-2.35,4.18-4.66,4.75a3.66,3.66,0,0,1-1,.09H51.2a5.38,5.38,0,0,1-3.86-1.55c-2.16-1.84-2.13-4.62-1.08-6.78,1.73-3.47,3.52-6.91,5.31-10.34C54.49,17.64,57.45,12,60.41,6.21a10.52,10.52,0,0,0,.51-1.08A5,5,0,0,1,64.41,2.3,5.52,5.52,0,0,1,71,5.74a5.9,5.9,0,0,1-.38,4.46C68,15.28,65.44,20.37,62.85,25.5c-.74,1.36-1.4,2.77-2.16,4.13-.37.66.05,1.22.9,1.27,3.14,0,6.3.05,9.45.05A6.25,6.25,0,0,1,75,32.22,5.43,5.43,0,0,1,77.11,37.21Z" transform="translate(-10 -0.25)"/><path class="cls-2" d="M89.59,2.7a.64.64,0,0,0-.64.64V40.66a.64.64,0,0,0,.64.64.64.64,0,0,0,.64-.64V3.34A.64.64,0,0,0,89.59,2.7Z" transform="translate(-10 -0.25)"/><path class="cls-2" d="M116.4,30.87c-1.23.26-2.39.47-3.44.62a12.87,12.87,0,0,1-6.15-.27,4.89,4.89,0,0,1-2.26-1.71,8.83,8.83,0,0,1-1.42-3.34,24,24,0,0,1-.5-5.33,24,24,0,0,1,.5-5.33,8.66,8.66,0,0,1,1.42-3.32,4.86,4.86,0,0,1,2.26-1.69,13,13,0,0,1,6.15-.28c1.05.16,2.21.37,3.44.63l.32.07.45-2.36-.31-.07c-1.28-.26-2.51-.47-3.65-.61a17.18,17.18,0,0,0-7.49.41,7,7,0,0,0-3.21,2.2,10.72,10.72,0,0,0-2,4.11,24.87,24.87,0,0,0-.68,6.31,25.29,25.29,0,0,0,.66,6.28,10.43,10.43,0,0,0,2,4.11,7.22,7.22,0,0,0,3.18,2.22,12.65,12.65,0,0,0,4.18.65,28,28,0,0,0,3.35-.22c1.16-.15,2.41-.35,3.7-.62l.31-.06-.48-2.47Z" transform="translate(-10 -0.25)"/><path class="cls-2" d="M137.15,17.48a6,6,0,0,0-2.72-2,15.28,15.28,0,0,0-9.08,0,6.12,6.12,0,0,0-2.69,2,7,7,0,0,0-1.25,3.09,25.57,25.57,0,0,0,0,7.81,6.83,6.83,0,0,0,1.25,3.08,6.16,6.16,0,0,0,2.69,2,15.28,15.28,0,0,0,9.08,0,6.07,6.07,0,0,0,2.72-2,6.82,6.82,0,0,0,1.24-3.08,23.24,23.24,0,0,0,.3-3.9,23.36,23.36,0,0,0-.3-3.91A7,7,0,0,0,137.15,17.48Zm-1.44,10.41a5.5,5.5,0,0,1-.83,2.32,3.57,3.57,0,0,1-1.76,1.32,9.38,9.38,0,0,1-3.22.44,9.28,9.28,0,0,1-3.21-.44,3.69,3.69,0,0,1-1.77-1.32,5.49,5.49,0,0,1-.82-2.32,24.28,24.28,0,0,1-.22-3.45A24.09,24.09,0,0,1,124.1,21a5.4,5.4,0,0,1,.82-2.31,3.79,3.79,0,0,1,1.77-1.34,11,11,0,0,1,6.43,0,3.76,3.76,0,0,1,1.76,1.34,5.4,5.4,0,0,1,.83,2.31,24.22,24.22,0,0,1,.21,3.41A24.43,24.43,0,0,1,135.71,27.89Z" transform="translate(-10 -0.25)"/><path class="cls-2" d="M150.88,15.27a29.62,29.62,0,0,0-4.35,1.62l-.07-1.78h-2.32V33.77h2.73V19.14A29.18,29.18,0,0,1,151,17.53c2.81-.78,4.95-.6,6.12.57a4.5,4.5,0,0,1,1,3.28V33.74h2.73V20.88a5.87,5.87,0,0,0-1.75-4.66C157.33,14.62,154.49,14.3,150.88,15.27Z" transform="translate(-10 -0.25)"/><path class="cls-2" d="M179.66,24.19a7.88,7.88,0,0,0-2.44-.91c-1-.2-2.11-.39-3.39-.56s-2.05-.29-2.75-.45a5.78,5.78,0,0,1-1.61-.54,1.73,1.73,0,0,1-.73-.71,2.47,2.47,0,0,1-.22-1.08,2.22,2.22,0,0,1,1.26-2.25,9.93,9.93,0,0,1,4-.64c.66,0,1.32,0,2,.09s1.26.13,1.82.2,1,.15,1.46.23.76.14,1,.17l.3,0,.4-2.21-.34-.05c-.19,0-.51-.07-.95-.16l-1.62-.25c-.62-.08-1.29-.16-2-.22a23.87,23.87,0,0,0-5.33.13,7.94,7.94,0,0,0-2.48.79,4.18,4.18,0,0,0-1.68,1.6,5,5,0,0,0-.58,2.54,5.12,5.12,0,0,0,.39,2.14,3.22,3.22,0,0,0,1.31,1.41,7.44,7.44,0,0,0,2.24.85,33.19,33.19,0,0,0,3.29.57c1.07.14,2,.28,2.76.43a6.64,6.64,0,0,1,1.82.56,2.22,2.22,0,0,1,1,.87,2.9,2.9,0,0,1,.32,1.46,3.07,3.07,0,0,1-.48,1.78A3.72,3.72,0,0,1,177,31.15a6.18,6.18,0,0,1-1.92.61,20.94,20.94,0,0,1-5.7,0c-1.2-.13-2.21-.25-3-.37l-.33-.05-.25,2.28.32,0,1.11.12c.49.06,1,.12,1.64.16l1.94.15c.7,0,1.41.07,2.12.07a19.09,19.09,0,0,0,3-.24,9.1,9.1,0,0,0,2.8-.89,5.86,5.86,0,0,0,2.08-1.8,4.9,4.9,0,0,0,.82-2.9,5.68,5.68,0,0,0-.49-2.5A3.73,3.73,0,0,0,179.66,24.19Z" transform="translate(-10 -0.25)"/><path class="cls-2" d="M200.23,29.93a17.05,17.05,0,0,1-6.85,1.87,4.17,4.17,0,0,1-3-1,4.52,4.52,0,0,1-1-3.29l0-12.36h-2.73V28a5.8,5.8,0,0,0,1.75,4.64,6.76,6.76,0,0,0,4.55,1.49,19,19,0,0,0,7.65-2l.17,1.64H203V15.11h-2.73Z" transform="translate(-10 -0.25)"/><path class="cls-2" d="M216.65,31.52c-.47.11-.91.2-1.3.26a4.63,4.63,0,0,1-2.11-.06,1.32,1.32,0,0,1-.65-.48,2.7,2.7,0,0,1-.43-1,9.1,9.1,0,0,1-.16-1.86l0-22.22h-2.74v22.3c0,2.08.34,3.52,1,4.38a4,4,0,0,0,3.26,1.34,12.32,12.32,0,0,0,1.57-.11c.55-.07,1.2-.19,2-.36l.31-.07L217,31.43Z" transform="translate(-10 -0.25)"/><path class="cls-2" d="M234.12,31.08c-.91.22-1.76.4-2.52.54a7.36,7.36,0,0,1-3.34,0,1.75,1.75,0,0,1-.86-.55,2.57,2.57,0,0,1-.55-1.11,8,8,0,0,1-.18-1.85V17.42h7.81V15.15l-7.81,0V9.46h-2.74v5.65h-4.39v2.27h4.39V28.12a10,10,0,0,0,.34,2.76,4.89,4.89,0,0,0,1,1.87,3.68,3.68,0,0,0,1.6,1,6.64,6.64,0,0,0,2.08.31,15.5,15.5,0,0,0,2.59-.24c.93-.16,1.95-.37,3-.64l.3-.07L234.45,31Z" transform="translate(-10 -0.25)"/><rect class="cls-2" x="230.04" y="7.76" width="2.88" height="4.1"/><rect class="cls-2" x="230.11" y="14.86" width="2.73" height="18.66"/><path class="cls-2" d="M255.93,15.27a29.62,29.62,0,0,0-4.35,1.62l-.07-1.78h-2.32V33.77h2.73V19.14a29.18,29.18,0,0,1,4.16-1.61c2.82-.78,5-.6,6.12.57a4.5,4.5,0,0,1,1,3.28V33.74H266V20.88a5.88,5.88,0,0,0-1.75-4.66C262.38,14.62,259.54,14.3,255.93,15.27Z" transform="translate(-10 -0.25)"/><path class="cls-2" d="M281.47,14.73h-1.62a18,18,0,0,0-3.82.34,7,7,0,0,0-2.58,1.11A4.33,4.33,0,0,0,272,18a6.59,6.59,0,0,0-.44,2.54,6.15,6.15,0,0,0,.83,3.3,4.62,4.62,0,0,0,2.4,1.83,8.48,8.48,0,0,0-1.35,1.42,3.3,3.3,0,0,0-.73,1.92,1.92,1.92,0,0,0,.78,1.56,4,4,0,0,0-2,1.37,4.45,4.45,0,0,0-.83,2.77,5.25,5.25,0,0,0,.48,2.32,4,4,0,0,0,1.67,1.67,9.41,9.41,0,0,0,3,.94,30.25,30.25,0,0,0,4.55.28,24.47,24.47,0,0,0,4.57-.35,8.78,8.78,0,0,0,3-1,3.93,3.93,0,0,0,1.64-1.73,5.65,5.65,0,0,0,.46-2.36,6.33,6.33,0,0,0-.42-2.39A3.73,3.73,0,0,0,288,30.34a7.9,7.9,0,0,0-2.94-1,29.14,29.14,0,0,0-4.62-.31,25.83,25.83,0,0,0-4.32.31c-.82-.31-.82-.69-.82-.82a1.78,1.78,0,0,1,.46-1.07A10.67,10.67,0,0,1,277,26.19a14.08,14.08,0,0,0,2.83.24,17.22,17.22,0,0,0,3.89-.38,6.67,6.67,0,0,0,2.59-1.12A4.19,4.19,0,0,0,287.71,23a6.94,6.94,0,0,0,.41-2.48,5.14,5.14,0,0,0-.71-2.84,3.37,3.37,0,0,0-1-1l3.62,0V14.82h-7C282.43,14.78,281.91,14.74,281.47,14.73Zm-4.62,16.59a22.34,22.34,0,0,1,3.5-.21,24.44,24.44,0,0,1,3.58.22,6.74,6.74,0,0,1,2.12.65,2.09,2.09,0,0,1,.95,1,3.83,3.83,0,0,1,.27,1.48A3.75,3.75,0,0,1,287,36a2.19,2.19,0,0,1-1,1,5.6,5.6,0,0,1-2.11.64,22.57,22.57,0,0,1-3.51.22,22.76,22.76,0,0,1-3.53-.22,5.61,5.61,0,0,1-2.09-.64,2.22,2.22,0,0,1-1-1,3.76,3.76,0,0,1-.27-1.5,3.85,3.85,0,0,1,.27-1.49,2.37,2.37,0,0,1,1-1A6.32,6.32,0,0,1,276.85,31.32Zm8.65-10.76a4.93,4.93,0,0,1-.26,1.63,2.59,2.59,0,0,1-.89,1.17,4.63,4.63,0,0,1-1.72.75,15,15,0,0,1-5.57,0,4.69,4.69,0,0,1-1.73-.75,2.55,2.55,0,0,1-.87-1.17,4.68,4.68,0,0,1-.27-1.63,3.36,3.36,0,0,1,1.22-2.87c.84-.63,2.33-1,4.44-1s3.6.34,4.42,1A3.34,3.34,0,0,1,285.5,20.56Z" transform="translate(-10 -0.25)"/></svg>