<?xml version="1.0" encoding="utf-8"?>
<!-- Generator: Adobe Illustrator 21.0.0, SVG Export Plug-In . SVG Version: 6.00 Build 0)  -->
<svg version="1.1" id="Vrstva_1" xmlns="http://www.w3.org/2000/svg" xmlns:xlink="http://www.w3.org/1999/xlink" x="0px" y="0px"
	 viewBox="0 0 257.8 160.1" style="enable-background:new 0 0 257.8 160.1;" xml:space="preserve">
<style type="text/css">
	.st0{fill:#9b9b9b;}
</style>
<title>logo</title>
<g id="XMLID_42_">
	<g id="XMLID_804_">
		<g id="XMLID_805_">
			<g id="XMLID_811_">
				<rect id="XMLID_41_" x="3.9" y="5.4" class="st0" width="22.8" height="113.6"/>
			</g>
			<g id="XMLID_810_">
				<rect id="XMLID_40_" x="49.3" y="5.4" class="st0" width="22.8" height="113.6"/>
			</g>
			<g id="XMLID_809_">
				<rect id="XMLID_39_" x="94.9" y="5.4" class="st0" width="22.8" height="113.6"/>
			</g>
			<g id="XMLID_808_">
				<rect id="XMLID_38_" x="140.3" y="5.3" class="st0" width="113.6" height="22.8"/>
			</g>
			<g id="XMLID_807_">
				<rect id="XMLID_19_" x="140.2" y="50.7" class="st0" width="113.6" height="22.8"/>
			</g>
			<g id="XMLID_806_">
				<rect id="XMLID_1_" x="140.2" y="96.2" class="st0" width="113.6" height="22.8"/>
			</g>
		</g>
	</g>
	<g id="XMLID_790_">
		<path id="XMLID_15_" class="st0" d="M6.9,146.6v4.8c0,0.7,0.7,1.4,1.4,1.4h3.9c0.2,0,0.2,0,0.2,0.2v1.6H8.2
			c-1.8,0-3.2-1.4-3.2-3.2v-4.6c0-1.8,1.4-3.2,3.2-3.2h4.1v1.6c0,0.2,0,0.2-0.2,0.2H8.2C7.6,145.2,6.9,145.9,6.9,146.6z"/>
		<path id="XMLID_20_" class="st0" d="M26.2,143.4v1.6c0,0.2,0,0.2-0.2,0.2h-2.7c-0.7,0-0.9,0.5-1.1,0.9v8.2h-1.6
			c-0.2,0-0.2,0-0.2-0.2v-10.7H22c0.2,0,0.2,0,0.2,0.2v0.5c0.2-0.5,0.9-0.7,1.6-0.7C23.7,143.4,26.2,143.4,26.2,143.4z"/>
		<path id="XMLID_22_" class="st0" d="M33.3,151.4v-4.8c0-2.1,1.4-3.2,3.2-3.2h3c1.8,0,3.2,1.1,3.2,3.2v2.5c0,0.5,0,0.7-0.7,0.7
			h-6.2c-0.5,0-0.7-0.2-0.9-0.5v2.1c0,0.7,0.7,1.4,1.4,1.4h5.9c0.2,0,0.2,0,0.2,0.2v1.6h-5.7C34.9,154.6,33.3,153.2,33.3,151.4z
			 M35.4,146.6v1.1c0,0.2,0,0.2,0.2,0.2h5.2c0.2,0,0.2,0,0.2-0.2v-1.1c0-0.9-0.5-1.4-1.4-1.4h-3C35.8,145.2,35.4,145.7,35.4,146.6z"
			/>
		<path id="XMLID_25_" class="st0" d="M59.5,146.6v7.3c0,0.5-0.2,0.7-0.7,0.7h-5.2c-1.8,0-3.2-1.4-3.2-3.2v-0.7
			c0-1.8,1.4-3.2,3.2-3.2h3.6c0.2,0,0.2,0,0.2-0.2v-0.5c0-0.7-0.5-1.4-1.4-1.4h-4.3c-0.2,0-0.2,0-0.2-0.2v-1.6h4.6
			C58.2,143.4,59.5,144.5,59.5,146.6z M53.6,152.7h3.6c0.2,0,0.2,0,0.2-0.2v-3.4c0,0.2-0.2,0.2-0.7,0.2h-3.2c-0.7,0-1.4,0.7-1.4,1.4
			v0.9C52.5,152.1,52.9,152.7,53.6,152.7z"/>
		<path id="XMLID_28_" class="st0" d="M73,153v1.6h-2.3c-1.8,0-3.2-1.4-3.2-3.2v-13.2h1.6c0.2,0,0.2,0,0.2,0.2v5.5
			c0-0.2,0.5-0.5,0.7-0.5h2.3v1.6c0,0.2,0,0.2-0.2,0.2h-2.7v6.2c0,0.7,0.7,1.4,1.4,1.4h2.1C72.8,152.7,73,152.7,73,153z"/>
		<path id="XMLID_30_" class="st0" d="M82.3,138.8v1.8h-1.6c-0.2,0-0.2,0-0.2-0.2v-1.8h1.6C82.1,138.6,82.3,138.6,82.3,138.8z
			 M82.3,143.6v10.7h-1.6c-0.2,0-0.2,0-0.2-0.2v-10.7h1.6L82.3,143.6z"/>
		<path id="XMLID_33_" class="st0" d="M89.4,143.4h1.8c0,0,0.2,0,0.2,0.2l3,7.8l3-7.8l0.2-0.2h1.8l-4.6,10.9l-0.2,0.2h-0.9
			c0,0-0.2,0-0.2-0.2L89.4,143.4z"/>
		<path id="XMLID_35_" class="st0" d="M106.7,151.4v-4.8c0-2.1,1.4-3.2,3.2-3.2h3c1.8,0,3.2,1.1,3.2,3.2v2.5c0,0.5,0,0.7-0.7,0.7
			h-6.2c-0.5,0-0.7-0.2-0.9-0.5v2.1c0,0.7,0.7,1.4,1.4,1.4h5.5c0.2,0,0.2,0,0.2,0.2v1.6h-5.7C108.1,154.6,106.7,153.2,106.7,151.4z
			 M108.6,146.6v1.1c0,0.2,0,0.2,0.2,0.2h5.2c0.2,0,0.2,0,0.2-0.2v-1.1c0-0.9-0.5-1.4-1.4-1.4h-3
			C109.2,145.2,108.6,145.7,108.6,146.6z"/>
	</g>
	<g id="XMLID_698_">
		<path id="XMLID_2_" class="st0" d="M141.2,147.9v-1.4c0-1.8,1.1-3,3-3h6.2v1.6c0,0.2,0,0.2-0.2,0.2h-5.7c-0.7,0-1.1,0.5-1.1,1.1
			v0.7c0,0,0,0.2,0.2,0.2l6.8,1.6c0.5,0,0.7,0.5,0.7,0.7v2.1c0,1.8-1.4,3-3.2,3h-6.2V153c0-0.2,0-0.2,0.2-0.2h5.9
			c0.7,0,1.4-0.5,1.4-1.1v-1.1c0,0,0-0.2-0.2-0.2l-6.8-1.6C141.4,148.6,141.2,148.2,141.2,147.9z"/>
		<path id="XMLID_4_" class="st0" d="M169.7,153v1.6h-2.3c-1.8,0-3.2-1.4-3.2-3.2v-13.2h1.6c0.2,0,0.2,0,0.2,0.2v5.5
			c0-0.2,0.5-0.5,0.7-0.5h2.3v1.6c0,0.2,0,0.2-0.2,0.2H166v6.2c0,0.7,0.7,1.4,1.4,1.4h2.1C169.7,152.7,169.7,152.7,169.7,153z"/>
		<path id="XMLID_6_" class="st0" d="M184,143.4c0.2,0,0.2,0,0.2,0.2v7.8c0,0.7,0.7,1.4,1.4,1.4h3c0.7,0,1.4-0.7,1.4-1.4v-7.8
			c0-0.2,0-0.2,0.2-0.2h1.6v7.8c0,1.8-1.4,3.2-3.2,3.2h-3c-1.8,0-3.2-1.4-3.2-3.2v-7.8H184z"/>
		<path id="XMLID_8_" class="st0" d="M208.2,143.4h2.5c0.7,0,1.4,0.2,1.6,0.7v-5.9c0-0.2,0-0.2,0.2-0.2h1.6v16
			c0,0.5-0.2,0.7-0.7,0.7h-5.2c-1.8,0-3.2-1.4-3.2-3.2v-4.6C205,145,206.4,143.4,208.2,143.4z M208.2,152.7h3.9c0.2,0,0.2,0,0.2-0.2
			v-5.9c0-0.7-0.5-1.1-1.1-1.1h-3c-0.7,0-1.4,0.7-1.4,1.4v4.8C207.1,152.1,207.5,152.7,208.2,152.7z"/>
		<path id="XMLID_11_" class="st0" d="M229.6,138.8v1.8H228c-0.2,0-0.2,0-0.2-0.2v-1.8h1.6C229.4,138.6,229.6,138.6,229.6,138.8z
			 M229.6,143.6v10.7H228c-0.2,0-0.2,0-0.2-0.2v-10.7h1.6L229.6,143.6z"/>
		<path id="XMLID_14_" class="st0" d="M243.1,151.4v-5c0-1.8,1.4-3.2,3.2-3.2h3c1.8,0,3.2,1.4,3.2,3.2v5c0,1.8-1.4,3.2-3.2,3.2h-3
			C244.5,154.6,243.1,153.2,243.1,151.4z M244.9,146.4v5c0,0.7,0.7,1.4,1.4,1.4h3c0.7,0,1.4-0.7,1.4-1.4v-5c0-0.7-0.7-1.4-1.4-1.4
			h-3C245.6,145.2,244.9,145.7,244.9,146.4z"/>
	</g>
</g>
</svg>
