<svg xmlns="http://www.w3.org/2000/svg" viewBox="0 0 57.91 19.6"><defs><style>.a{fill:#fff;}</style></defs><path class="a" d="M51,11.39l1.67-3.05,1.61,3.05Zm-3.35,3h1.74l.87-1.64h4.75l.9,1.64h2l-4.3-7.49H51.93Zm-4.6,0H44.3l4.12-7.49H46.67L43.79,12.3l-3-5.41h-2ZM28.45,11.27v4a3.52,3.52,0,0,0,.09.87,1.12,1.12,0,0,0,.32.54,1.18,1.18,0,0,0,.57.28,4.33,4.33,0,0,0,.88.08h5.51a4.33,4.33,0,0,0,.88-.08,1.18,1.18,0,0,0,.57-.28,1,1,0,0,0,.31-.54,3.06,3.06,0,0,0,.1-.87v-4a3.06,3.06,0,0,0-.1-.87,1,1,0,0,0-.31-.54,1.18,1.18,0,0,0-.57-.28,4.33,4.33,0,0,0-.88-.08H30.31a4.33,4.33,0,0,0-.88.08,1.18,1.18,0,0,0-.57.28,1.12,1.12,0,0,0-.32.54A3.52,3.52,0,0,0,28.45,11.27Zm1.74,4.31V10.84h5.75v4.74Zm-6-4.79a1.31,1.31,0,0,1,.6.11c.12.07.18.24.18.49v.8q0,.38-.18.48a1.31,1.31,0,0,1-.6.11H20.32v-2ZM18.61,17h1.71V14.07H25a2,2,0,0,0,1.28-.33,1.38,1.38,0,0,0,.41-1.12V11a1.36,1.36,0,0,0-.41-1.11A2,2,0,0,0,25,9.5H18.61ZM13.82,19.6h1.74V12.11H13.82Zm-9.44,0h7.67V18.19H6.12V12.11H4.38ZM52,3.41h5.94V4.79H52Zm-52,2H12.33V2.72H32.92V0H53.61V1.49H34.41V4.21H13.82V6.93H0Z"/></svg>