<?xml version="1.0" encoding="utf-8"?>
<!-- Generator: Adobe Illustrator 24.0.2, SVG Export Plug-In . SVG Version: 6.00 Build 0)  -->
<svg version="1.1" id="Vrstva_1" xmlns="http://www.w3.org/2000/svg" xmlns:xlink="http://www.w3.org/1999/xlink" x="0px" y="0px"
	 viewBox="0 0 88 92" style="enable-background:new 0 0 88 92;" xml:space="preserve">
<style type="text/css">
	.st0{fill:#FFFFFF;}
</style>
<g>
	<g>
		<path class="st0" d="M49.3,0.7c1.9,0,3.8,0.1,5.6,0.5c1.2,0.3,2.3,0.5,3.5,0.8C75.2,6.6,87.7,22.5,88,40c0,2.2-0.3,4.3-2.8,4.5
			c-2.7,0.2-3.5-1.6-3.7-4.1c-1-13.7-7.4-23.8-19.8-29.9C57.5,8.3,53,7.7,48.4,7.2c-1.7-0.2-3.2-0.4-4-2.3c-0.8-2,0.6-3,1.7-4.3
			H49.3z"/>
	</g>
	<g>
		<path class="st0" d="M59.3,91.3c-4.6-0.3-10-3.4-15.3-6.3C24.3,74.6,10.5,58.7,1.8,38.3c-4.7-11,0.1-21.1,11.5-23.7
			c3-0.7,5.7,0,7.9,1.9c4.9,4.4,8.8,9.5,11.5,15.5c2.1,4.6,0.4,9.3-3.8,11.8c-1.8,1.1-3.4,1.1-4.7-0.6c-1.2-1.6-1-3.4,0.5-4.4
			c3.3-2.1,2.2-4.5,0.7-6.8c-2.1-3.4-4.4-6.6-7.3-9.5c-1.7-1.7-3.3-1.8-5.4-0.9C7.2,24,5,28.6,7.3,34.3c7.2,17.6,18.4,32,34.7,42
			c4.7,2.9,9.6,5.5,14.8,7.5c5.9,2.3,10.5,0.2,12.9-5.4c0.8-2,0.8-3.5-0.8-5.1c-3.4-3.3-7.2-6.1-11.3-8.3c-1.9-1-3.2-0.9-4.5,1
			c-1.3,1.8-3.1,2.8-5.1,1.1c-2-1.8-1.2-3.8,0.3-5.6c3-3.8,6.8-4.8,11.3-2.7c5.8,2.7,10.9,6.6,15.2,11.3c2.1,2.3,2.6,5.1,2,8.2
			C75,85.9,68.6,91.4,59.3,91.3z"/>
	</g>
	<g>
		<path class="st0" d="M69.4,40c0.3,2.3-0.4,4.2-2.8,4.5c-2.5,0.3-3.3-1.5-3.7-3.7c-2-10-4.7-12.7-15-14.8c-2-0.4-3.7-1.3-3.5-3.6
			c0.2-2.2,1.8-3.2,4-3.1C59.2,19.5,68.9,29,69.4,40z"/>
	</g>
</g>
</svg>
