<?xml version="1.0" encoding="utf-8"?>
<!-- Generator: Adobe Illustrator 24.0.2, SVG Export Plug-In . SVG Version: 6.00 Build 0)  -->
<svg version="1.1" id="Vrstva_1" xmlns="http://www.w3.org/2000/svg" xmlns:xlink="http://www.w3.org/1999/xlink" x="0px" y="0px"
	 viewBox="0 0 88 60" style="enable-background:new 0 0 88 60;" xml:space="preserve">
<style type="text/css">
	.st0{fill:#FFFFFF;}
</style>
<g>
	<g>
		<path class="st0" d="M44.1-0.1c10.6,0,21.3,0.2,31.9,0C84.2-0.3,88.3,2.8,88,12c-0.4,12.7-0.1,25.4-0.1,38.1c0,6.7-3.1,10-9.8,10
			c-22.8,0.1-45.5,0.1-68.3,0C3.2,60,0,56.7,0,50.1C0,36.7,0,23.4,0,10C0,3.2,3.2,0,10.1,0C21.4-0.1,32.8-0.1,44.1-0.1z M44,5.8
			c-11.3,0-22.6,0.1-34,0c-3.1,0-4.6,0.9-4.6,4.3c0.1,13.4,0.1,26.8,0,40.1c0,2.9,1.2,4.1,4.1,4.1c22.9-0.1,45.8-0.1,68.6,0
			c3.1,0,4.2-1.2,4.2-4.3c-0.1-13.3-0.1-26.5,0-39.8c0-3.3-1.2-4.5-4.4-4.4C66.7,5.9,55.3,5.8,44,5.8z"/>
	</g>
	<g>
		<path class="st0" d="M13.7,11c1.4,0.2,2.3,1.1,3.3,2c7.9,7,15.9,13.8,23.6,20.9c2.8,2.6,4.3,2.3,6.9-0.1
			c7.7-7.1,15.7-14,23.6-20.9c1.6-1.4,3.3-3.1,5.2-0.8c1.8,2.2,0,3.7-1.6,5.1c-9.1,8-18.2,16-27.2,24.1c-2.4,2.2-4.3,2.4-6.8,0.1
			C31.5,33.1,22.2,25,12.9,16.9c-1.3-1.1-2.4-2.3-1.7-4.1C11.6,11.6,12.6,11.1,13.7,11z"/>
	</g>
</g>
</svg>
